<?xml version="1.0" standalone="no"?>
<!DOCTYPE svg PUBLIC "-//W3C//DTD SVG 1.1//EN" "http://www.w3.org/Graphics/SVG/1.1/DTD/svg11.dtd" >
<svg xmlns="http://www.w3.org/2000/svg">
<metadata>
This is a custom SVG webfont generated by Font Squirrel.
Copyright   : 2000 Iconian Fonts  wwwiconiancom
</metadata>
<defs>
<font id="LegalTenderRegular" horiz-adv-x="962" >
<font-face units-per-em="1000" ascent="800" descent="-200" />
<missing-glyph horiz-adv-x="448" />
<glyph unicode=" "  horiz-adv-x="448" />
<glyph unicode="&#x09;" horiz-adv-x="448" />
<glyph unicode="&#xa0;" horiz-adv-x="448" />
<glyph unicode="!" horiz-adv-x="358" d="M318 580v-394q-92 36 -158 36t-142 -32l-1 334v56h189h22h90zM17 71q0 16 7.5 31.5t25 27.5t45 19.5t66.5 7.5q32 0 61 -5t50 -15q22 -10 30 -19.5t17 -31.5q0 -34 -41.5 -60t-126.5 -26q-67 0 -100.5 22t-33.5 49z" />
<glyph unicode="&#x22;" horiz-adv-x="568" d="M289 462q0 22 6 44t20 39.5t36.5 28.5t56.5 11q26 0 49.5 -8t41.5 -21.5t28.5 -32t10.5 -39.5q0 -12 -2 -29.5t-8.5 -38.5t-18.5 -45.5t-33 -50.5q-40 -52 -76 -54q-34 -1 -14 32q21 33 26 82q-44 -12 -63.5 -6t-33.5 20q-13 14 -19.5 32t-6.5 36zM9 462q0 22 6 44 t20 39.5t36.5 28.5t56.5 11q26 0 49.5 -8t41.5 -21.5t28.5 -32t10.5 -39.5q0 -12 -2 -29.5t-8.5 -38.5t-18.5 -45.5t-33 -50.5q-40 -52 -76 -54q-34 -1 -14 32q21 33 26 82q-44 -12 -63.5 -6t-33.5 20q-13 14 -19.5 32t-6.5 36z" />
<glyph unicode="$" horiz-adv-x="826" d="M433 151q26 -4 38 -12.5t19.5 -20.5t7.5 -28q0 -23 -15 -36.5t-39 -13.5l-11 -1v84v28zM383 394q-7 2 -20.5 11t-26 21t-21.5 25t-9 25q0 27 17 42.5t60 33.5l1 -8v-28v-104zM385 37l-29 -1h-57h-20q-9 0 -16 -1q-24 -1 -46 3q-24 5 -31 2q-6 7 -23 24l-36 36l-37 36 q-17 16 -24 22l-30 19q-2 1 -5.5 4.5t-4.5 5.5l-10 -19v-138v-29h240h106l26 1v-18v-81h45v98h103q42 0 45 -1h11q6 0 14 1q45 5 84 22t67 44.5t44 65t16 84.5v10q0 9 -0.5 19t-0.5 18v11q-8 6 -14 15l-11 16q-5 9 -11 16.5t-14 11.5q-18 9 -37 12.5t-38.5 5t-38.5 3.5 t-36 8q-31 11 -54 17.5t-38 8.5q-24 3 -46 4.5t-41 1.5h-4v164h23q118 2 144 -7q28 -8 57 -24l58 -31q29 -16 59 -30q13 5 17 21t4 30v18q0 4 -0.5 15t-0.5 14l-14 16h-260l-87 1v103l-52 -1l1 -100q-28 -3 -68 -6t-81 -11t-80.5 -22.5t-70 -37.5t-49 -55t-18.5 -76 q0 -20 5 -35t13.5 -26.5t18.5 -20.5l21 -18l17 -14q9 -8 22 -18q27 -20 98 -51q40 -12 73.5 -20t57.5 -10q24 -1 42 -6l1 -31v-81z" />
<glyph unicode="'" horiz-adv-x="280" d="M9 462q0 22 6 44t20 39.5t36.5 28.5t56.5 11q26 0 49.5 -8t41.5 -21.5t28.5 -32t10.5 -39.5q0 -12 -2 -29.5t-8.5 -38.5t-18.5 -45.5t-33 -50.5q-40 -52 -76 -54q-34 -1 -14 32q21 33 26 82q-44 -12 -63.5 -6t-33.5 20q-13 14 -19.5 32t-6.5 36z" />
<glyph unicode="(" horiz-adv-x="528" d="M10 295q-3 -71 14.5 -124t48.5 -92t72.5 -64.5t87 -40.5t90.5 -21t84 -6h13h65l9 3l1 34l-15 1q-22 0 -37 14t-25 37q-10 25 -21 47q-11 27 -11 226q0 202 12 240q4 8 8 15l8 13q8 13 17.5 24t29.5 13q5 1 10 1.5t10 0.5h18v41h-24h-33q-23 0 -49.5 -1t-50.5 -1h-32 q-48 -8 -99 -26t-96 -53q-23 -20 -42.5 -51t-33.5 -66q-13 -34 -20 -72t-9 -92z" />
<glyph unicode=")" horiz-adv-x="528" d="M496 295q3 -71 -14.5 -124t-48.5 -92t-72.5 -64.5t-87 -40.5t-90.5 -21t-84 -6h-13h-65l-9 3l-1 34l15 1q22 0 37 14t24 37l10 23q6 12 11 24q12 25 12 226q0 202 -12 240q-4 8 -8 15l-8 13q-8 13 -17.5 24t-29.5 13q-5 1 -10 1.5t-10 0.5h-18v41h24h33q23 0 49.5 -1 t50.5 -1h32q48 -8 99 -26t96 -53q23 -20 42.5 -51t33.5 -66q13 -34 20 -72t9 -92z" />
<glyph unicode="+" horiz-adv-x="552" d="M525 281v18q0 9 -2 20q-1 20 -11 29.5t-20 17.5q-12 8 -25 8q-13 -1 -20.5 2.5t-8.5 3.5l-90 1v37v111q0 7 -4.5 15t-14 12.5t-23.5 4.5h-38h-44q-12 0 -24 -1.5t-16.5 -5.5t-15.5 -10v-126v-39q-76 1 -99.5 -3.5t-36 -14t-14.5 -23.5t-2 -38v-44q0 -12 6 -24t17 -16.5 t30 -15.5h57l41 1l1 -147q0 -13 23 -21.5t58 -8.5h18q9 0 20 1q20 1 30 5l17 6q8 4 8 8q-1 5 2 8l4 2v111l1 34l89 1q39 0 63 23t24 58z" />
<glyph unicode="," horiz-adv-x="340" d="M9 98q0 22 7.5 44t25 39.5t45 28.5t66.5 11q32 0 61 -8t50.5 -21.5t34 -32t12.5 -39.5q0 -26 -13 -68q-12 -43 -62 -95q-49 -52 -92 -54q-41 -1 -16 32q25 34 30 81q-26 -6 -44 -7t-31 1t-22.5 7.5t-18.5 12.5q-33 30 -33 68z" />
<glyph unicode="-" horiz-adv-x="552" d="M525 281v18q0 9 -2 20q-1 20 -11 29.5t-20 17.5q-12 8 -25 8q-13 -1 -20.5 2.5t-8.5 3.5h-325q-21 0 -44.5 -4.5t-36 -14t-14.5 -23.5t-2 -38v-44q0 -12 6 -24t17 -16.5t30 -15.5h369q39 0 63 23t24 58z" />
<glyph unicode="." horiz-adv-x="340" d="M9 98q0 22 7.5 44t25 39.5t45 28.5t66.5 11q32 0 61 -8t50.5 -21.5t34 -32t12.5 -39.5q0 -24 -8.5 -50t-32.5 -44t-54 -22t-73 -4q-33 0 -58.5 8.5t-42 22t-25 31t-8.5 36.5z" />
<glyph unicode="/" horiz-adv-x="974" d="M509 580h154h22h18h262l-12 -15l-80 -85q-463 -398 -459 -412q8 -16 22 -26t20 -18q3 -4 8.5 -10t13.5 -14h-472q12 12 20.5 19.5t15 12.5t13.5 8l15 9q18 11 29 28.5t474 452.5q0 7 -7 12.5t-17 9.5q-4 2 -8.5 2.5t-9.5 3t-10.5 7.5t-11.5 15z" />
<glyph unicode="0" horiz-adv-x="960" d="M10 284q2 43 9 75t20 59q14 28 33.5 53.5t42.5 41.5q44 29 96 43.5t99 21.5h32q24 0 50.5 0.5t49.5 0.5h33h43q27 0 53.5 -0.5t46.5 -0.5h22q24 -1 48.5 -7t47.5 -14q24 -8 47.5 -17.5t48.5 -30.5q26 -21 48.5 -42.5t38.5 -42.5t24 -51t8 -84v-11q0 -9 -0.5 -18.5 t-0.5 -17.5v-12q-8 -18 -12 -32t-14 -29q-9 -15 -40 -52q-15 -18 -32.5 -30.5t-35.5 -23t-37.5 -20t-38.5 -21.5l-59 -10q-25 -4 -46.5 -7t-43.5 -4t-50 -1h-30q-14 0 -26 1q-23 2 -65 0h-13q-39 0 -84 5t-90.5 17t-87 33t-72.5 52t-48.5 74.5t-14.5 101.5zM499 545h-18 q-9 0 -20 -1q-20 -1 -29.5 -10.5t-17.5 -19.5q-8 -11 -8 -23q1 -13 -2.5 -20t-3.5 -8v-307q0 -20 4.5 -42t14 -40.5t24.5 -30.5t37 -12q24 0 38.5 6.5t24.5 18t18 26.5t19 33v348q0 37 -23 59.5t-58 22.5z" />
<glyph unicode="1" horiz-adv-x="558" d="M384 542l45 -44v-279q0 -57 7.5 -93t27.5 -60q10 -12 19 -20t19.5 -15t24.5 -14l31 -17l-548 2q20 22 41.5 29.5t38.5 17.5q18 11 29 28.5t11 52.5l-1 368l-79 67l-28 15h26h270h22z" />
<glyph unicode="2" horiz-adv-x="826" d="M520 0h260l14 16q0 3 0.5 14t0.5 15v18q0 14 -4 30t-15 44q-32 -32 -61 -50.5t-58 -33.5q-29 -17 -57 -24q-24 -9 -144 -7l-152 -1l2 84q0 12 9 25t21 25q13 12 23.5 17t26.5 9l29 4q12 1 22 1q39 0 87 6q15 2 34.5 5.5t55.5 15.5l55 10q20 3 27 5q14 3 33 6.5t37 12.5 q8 4 14 11.5t12 16.5l11 17q5 8 13 14v11q0 8 0.5 18t0.5 19v10q0 46 -16 84t-44 65.5t-67 44.5t-84 22q-4 1 -8 1h-6h-11q-2 -1 -86 -1h-239h-240v-29v-138l10 -19q1 2 4.5 5.5t5.5 4.5l30 19q7 6 24 22l37 36l36 36q17 17 23 24q6 -3 31 2q22 4 46 3q5 -1 16 -1h20h57 q32 -2 54 -3t34 -1q24 0 39 -13.5t15 -36.5q0 -17 -7.5 -28.5t-19.5 -20t-26.5 -13t-28.5 -6.5q-8 -1 -29.5 -2.5t-45.5 -2.5q-24 -2 -57.5 -10t-73.5 -20q-72 -32 -98 -51q-13 -10 -22 -18l-17 -14q-21 -17 -39.5 -38.5t-18.5 -61.5l1 -204l370 -1h134z" />
<glyph unicode="3" d="M365 0h25h18h14q8 0 12 1l324 1q20 0 30 2t22 8q21 1 45.5 13t45.5 30.5t35 41t14 45.5q0 27 -12.5 47t-30 33.5t-35.5 22.5l-27 14l-16 6l-19 7l-27 8l-41 12l56 14q19 5 31.5 9.5t23.5 11.5l31 17q25 14 45.5 36t20.5 60q0 22 -14 45t-35 41.5t-45.5 30.5t-45.5 13 q-11 4 -24 5t-41 5l-428 -2q-116 -17 -162 -6q-41 10 -126 10q-10 0 -14.5 -12.5t-6 -28.5t-1 -32t0.5 -22q0 -4 0.5 -17.5t0.5 -17.5q9 -5 11 -10l6 -11q2 -5 6.5 -8t16.5 -3q17 0 33 10l34 21l16 12l17 10q7 5 41 19l95 36q23 8 39.5 12t31 5.5t29.5 1t35 -1.5h18 q11 0 22 0.5t26 0.5q24 -4 50 -10t44 -19q18 -12 29.5 -36t11.5 -51q0 -31 -8 -49t-20 -28t-27 -14.5t-52 -8.5h-48l-24 -2l-32 4q-26 10 -50.5 21t-47.5 23t-38 22l-25 16q-11 7 -17.5 10.5t-12.5 3.5v-240q10 5 34 16l66 30q42 19 84.5 28.5t94.5 -2.5q26 -5 43 -10l25 -6 q17 -5 27 -14q12 -9 20 -26.5t8 -47.5q0 -28 -12 -50.5t-30.5 -38t-41 -24t-43.5 -8.5h-24l-32 1h-90q-25 2 -71 24q-23 11 -45.5 24.5t-44.5 28.5l-40 19q-16 7 -24 12q-9 5 -25 16l-41 30l-43 40v-190q0 -10 0.5 -16t0.5 -22l24 -2h326z" />
<glyph unicode="4" horiz-adv-x="974" d="M509 580h154h22h18h262l-12 -15l-80 -85v-350q0 -35 11 -52.5t29 -28.5l15 -9q7 -3 13.5 -8t15 -12.5t20.5 -19.5h-472q12 12 17.5 19t12.5 14l18 15q10 8 16 20q7 28 6 61q-1 8 -1 22v35v106h-80h-88h-294l-2 188l-80 85l-12 15h262h18h22h154q-6 -10 -11.5 -15 t-10.5 -7.5t-10 -3t-9 -2.5q-9 -4 -16 -9.5t-7 -12.5v-198h160l3 198q0 7 -7 12.5t-17 9.5q-4 2 -8.5 2.5t-9.5 3t-10.5 7.5t-11.5 15z" />
<glyph unicode="5" horiz-adv-x="826" d="M520 581h260l14 -16q0 -3 0.5 -14t0.5 -15v-18q0 -14 -4 -30t-15 -44q-32 32 -61 50.5t-58 33.5q-29 16 -57 24q-24 9 -144 7l-152 1l2 -84q0 -12 9 -25t21 -25q13 -12 23.5 -17t26.5 -9l29 -4q12 -1 22 -1q39 0 87 -6q15 -2 34.5 -5.5t55.5 -15.5l55 -10q20 -3 27 -5 q14 -3 33 -6.5t37 -12.5q8 -4 14 -11.5t12 -16.5l11 -17q5 -8 13 -14v-11q0 -8 0.5 -18t0.5 -19v-10q0 -47 -16 -84.5t-44 -65t-67 -44.5t-84 -22q-4 -1 -8 -1h-6h-11q-2 1 -86 1h-239h-240v29v138l10 19q1 -2 4.5 -5.5t5.5 -4.5l30 -19l25 -22l36 -36l36 -36q17 -17 23 -24 q6 3 31 -2q22 -4 46 -3q5 1 16 1h20h57q32 2 54 3t34 1q24 0 39 13.5t15 36.5q0 16 -7.5 28t-19.5 20.5t-26.5 13t-28.5 6.5q-8 1 -29.5 2.5t-45.5 2.5q-24 2 -57.5 10t-73.5 20q-72 32 -98 51q-13 10 -22 18l-17 14l-21 18q-10 9 -18.5 20.5t-13.5 26.5t-5 35l1 204l370 1 h134z" />
<glyph unicode="6" horiz-adv-x="826" d="M520 581h260l14 -16q0 -3 0.5 -14t0.5 -15v-18q0 -14 -4 -30t-15 -44q-32 32 -61 50.5t-58 33.5q-29 16 -57 24q-24 9 -144 7q-18 -1 -43 -4t-48.5 -11.5t-42 -25t-24.5 -44.5q-8 -29 -9 -97l45 15l39 13q16 4 30 8t26 8q24 4 46 6t42 2h19q10 0 21 -2t26.5 -6t37.5 -12 l43 -14l27 -8q18 -6 38 -18t36 -24q9 -12 15 -22l11 -18l11.5 -15t13.5 -15v-11q0 -8 0.5 -18t0.5 -19v-10q0 -47 -16 -84.5t-44 -65t-67 -44.5t-84 -22l-25 -1l-325 1q-86 9 -144 69q-29 30 -50.5 59t-35.5 58q-12 118 -12 144q1 13 1 24v21l27 52q12 21 20 32q16 22 42 44 t57 38q23 12 52.5 20t60 12t60 5.5t52.5 1.5h134zM484 38q61 15 85 32q23 18 37.5 43.5t14.5 57.5q0 34 -10 53.5t-24 30.5q-8 6 -15.5 9.5t-18 6.5t-25.5 5t-37 4h-67q-23 -2 -38 -4t-25.5 -5t-18 -6.5t-14.5 -9.5q-14 -11 -24 -30.5t-10 -53.5q0 -33 14.5 -58t37 -41.5 t49 -25t50.5 -8.5h39z" />
<glyph unicode="7" horiz-adv-x="886" d="M436 546l-10 2h-28q-52 0 -114 -20l-95 -36q-34 -14 -41 -19l-17 -11q-8 -5 -16 -11l-34 -21q-16 -10 -33 -10q-13 0 -17.5 3t-6.5 7l-5 11q-2 6 -11 11q0 4 -0.5 17.5t-0.5 17.5q0 7 -0.5 22.5t1 30.5t5.5 27t14 13h551h22h18l276 2l-26 -17l-82 -93l-202 -281 q-75 -103 -104 -135q-6 -6 -5.5 -10.5t7 -10t18.5 -13.5t30 -22l-536 2q18 21 41 29q22 8 105 115l110 152l82 106l54 68q21 25 32 37q21 21 18 37z" />
<glyph unicode="8" d="M742 292l40 -12l28 -8l19 -7l16 -6l27 -14q18 -9 35.5 -22.5t30 -33.5t12.5 -47q0 -23 -14 -45.5t-35 -41t-45.5 -30.5t-45.5 -13q-12 -6 -22 -8t-30 -2h-250q-47 1 -294 0q-20 0 -30 2t-22 8q-21 1 -45.5 13t-45.5 30.5t-35 41t-14 45.5q0 27 12.5 47t30 33.5t34.5 22.5 l28 14l16 6l19 7l27 8l41 12l-56 14q-19 5 -31.5 9.5t-23.5 10.5l-31 18q-25 14 -45.5 36t-20.5 60q0 22 14 45t35 41.5t45.5 30.5t45.5 13q11 4 24 5t41 5l239 4h40l239 -4q28 -4 41 -5t24 -5q21 -1 45.5 -13t45.5 -30.5t35 -41.5t14 -45q0 -38 -20.5 -60t-45.5 -36 l-31 -18q-11 -6 -23.5 -10.5t-31.5 -9.5zM464 554q-52 -13 -72 -32q-18 -17 -29.5 -41t-11.5 -51q0 -31 8 -49t20 -28q6 -5 12 -8.5t15 -6t22 -4t33 -2.5l51 -2q39 4 54 8.5t27 14.5t20 28t8 49q0 27 -12 51q-6 12 -12.5 22t-17 19t-27 17t-40.5 15h-48zM508 38q51 13 70 29 t31 38.5t12 50.5q0 30 -8 47.5t-20 26.5q-12 10 -27 14.5t-52 7.5h-56q-37 -3 -52 -7.5t-27 -14.5q-12 -9 -20 -26.5t-8 -47.5q0 -29 12 -51t30.5 -37t40.5 -22.5t42 -7.5h32z" />
<glyph unicode="9" horiz-adv-x="826" d="M311 0h-260l-14 16q0 3 -0.5 14t-0.5 15v18q0 14 4 30t15 44q32 -32 61 -50.5t58 -33.5q28 -17 57 -24q27 -9 139 -5q32 4 52.5 4.5t44.5 9.5t41 24.5t25 44.5t9 97l-45 -15l-39 -13q-16 -4 -30 -8t-26 -8q-24 -4 -46 -6t-42 -2h-20q-9 0 -20 2t-26.5 6t-37.5 12l-43 14 l-27 8q-18 6 -38 18t-36 24q-9 12 -15 22l-11 18l-11.5 15t-13.5 15v11q0 8 -0.5 18t-0.5 19v10q0 46 16 84t44 65.5t67 44.5t84 22l25 1l325 -1q85 -9 144 -69q29 -30 50.5 -59t35.5 -58q6 -60 9 -95.5t2 -48.5v-45l-28 -52q-11 -21 -19 -32q-16 -22 -42 -44t-57 -39 q-23 -12 -52.5 -19.5t-60 -11.5t-60 -5.5t-52.5 -1.5h-134zM347 543q-64 -15 -86 -33q-22 -17 -36.5 -42.5t-14.5 -57.5q0 -34 10 -53.5t24 -30.5q7 -6 14.5 -9.5t18 -6.5t25.5 -5t38 -4h67q22 2 37 4t25.5 5t18 6.5t15.5 9.5q14 11 24 30.5t10 53.5q0 33 -14.5 58t-37 41.5 t-49 25t-50.5 8.5h-39z" />
<glyph unicode=":" horiz-adv-x="340" d="M9 438q0 22 7.5 44t25 39.5t45 28.5t66.5 11q32 0 61 -8t50.5 -21.5t34 -32t12.5 -39.5q0 -24 -8.5 -50t-32.5 -44t-54 -22.5t-73 -4.5q-33 0 -58.5 8.5t-42 22.5t-25 32t-8.5 36zM9 98q0 22 7.5 44t25 39.5t45 28.5t66.5 11q32 0 61 -8t50.5 -21.5t34 -32t12.5 -39.5 q0 -24 -8.5 -50t-32.5 -44t-54 -22t-73 -4q-33 0 -58.5 8.5t-42 22t-25 31t-8.5 36.5z" />
<glyph unicode=";" horiz-adv-x="340" d="M9 438q0 22 7.5 44t25 39.5t45 28.5t66.5 11q32 0 61 -8t50.5 -21.5t34 -32t12.5 -39.5q0 -24 -8.5 -50t-32.5 -44t-54 -22.5t-73 -4.5q-33 0 -58.5 8.5t-42 22.5t-25 32t-8.5 36zM9 98q0 22 7.5 44t25 39.5t45 28.5t66.5 11q32 0 61 -8t50.5 -21.5t34 -32t12.5 -39.5 q0 -26 -13 -68q-12 -43 -62 -95q-49 -52 -92 -54q-41 -1 -16 32q25 34 30 81q-26 -6 -44 -7t-31 1t-22.5 7.5t-18.5 12.5q-33 30 -33 68z" />
<glyph unicode="=" horiz-adv-x="552" d="M525 413v18q0 9 -2 20q-1 20 -11 29.5t-20 17.5q-12 8 -25 8q-13 -1 -20.5 2.5t-8.5 3.5h-325q-21 0 -44.5 -4.5t-36 -14t-14.5 -23.5t-2 -38v-44q0 -12 6 -24t17 -16.5t30 -15.5h369q39 0 63 23t24 58zM525 157v18q0 9 -2 20q-1 20 -11 29.5t-20 17.5q-12 8 -25 8 q-13 -1 -20.5 2.5t-8.5 3.5h-325q-21 0 -44.5 -4.5t-36 -14t-14.5 -23.5t-2 -38v-44q0 -12 6 -24t17 -16.5t30 -15.5h369q39 0 63 23t24 58z" />
<glyph unicode="?" horiz-adv-x="838" d="M312 581h134q32 0 72 -3t81 -11t80.5 -22.5t70 -37.5t49 -55t18.5 -76q0 -20 -5 -35t-13.5 -26.5t-19.5 -20.5l-20 -18l-17 -14q-9 -8 -22 -18q-26 -19 -98 -51q-40 -12 -73.5 -20t-57.5 -10q-24 -1 -45.5 -2.5t-29.5 -2.5q-28 -4 -64 24q-18 14 -46 26t-88 20t-110 2 t-72 -20q-22 -13 -21 7v10q0 9 0.5 19t0.5 18v11q8 6 13 15l11 16q6 9 12 16.5t14 11.5q18 9 37 12.5t33 6.5q7 2 27 5l55 10q36 12 55.5 15.5t34.5 5.5q48 6 87 6q10 0 22 1l29 4q16 4 26.5 9t22.5 17q13 12 22 25t9 25q0 27 -17 42.5t-41 24.5t-49.5 12t-42.5 4 q-120 2 -144 -7q-29 -8 -57 -24q-29 -15 -58 -33.5t-61 -50.5q-11 28 -15 44t-4 30v18q0 4 0.5 15t0.5 14l14 16h260zM9 71q0 16 7.5 31.5t25 27.5t45 19.5t66.5 7.5q32 0 61 -5t50 -15q22 -10 30 -19.5t17 -31.5q0 -34 -41.5 -60t-126.5 -26q-67 0 -100.5 22t-33.5 49z" />
<glyph unicode="A" horiz-adv-x="938" d="M10 12q2 0 3 -1.5t4.5 -4t10.5 -4t21 -1.5q7 -1 12 -1h9h10h130q43 1 50 0h5h5h32q-82 37 -90 50q-5 10 -13 21.5t-13 21.5q-5 9 -6.5 19.5t-1.5 31.5h48h28h104h24v-30q0 -19 -3 -31t-8 -23q-4 -11 -9.5 -21.5t-15.5 -38.5h592q-54 38 -100.5 92.5t-88.5 130.5 q-19 36 -36 74l-34 74l-31 69q-15 33 -28 59l-10 23l-14 26l-11 21l-5 9h-260q-1 0 -4.5 -4.5t-5.5 -6.5q-36 -61 -60 -130l-51 -137q-26 -68 -60 -131t-89 -112q-1 -1 -7 -4t-13 -7l-13 -7q-6 -4 -7 -5q-1 0 -1.5 -4.5t-0.5 -6.5t0.5 -6t1.5 -5zM362 180h-104l-58 2 q1 2 6 19l10 41q7 24 24 75l14 41q6 16 10 25t7 12t8 3q12 0 20.5 -9t14.5 -24t11 -34l10 -38q7 -25 15 -49t12 -64z" />
<glyph unicode="B" d="M466 330h-36v200q0 7 7 12.5t16.5 9.5t18.5 6t13 2q27 0 51.5 -10t43 -27.5t30 -41.5t11.5 -51q0 -31 -8 -49t-20 -28t-27 -14.5t-52 -8.5h-48zM742 292l56 14q19 5 31.5 9.5t23.5 10.5l31 18q25 14 45.5 36t20.5 60q0 22 -14 45t-35 41.5t-45.5 30.5t-45.5 13 q-11 4 -24 5t-41 5h-405h-22h-262l-34 -2l28 -13l80 -85v-378l-80 -85l-24 -15h274h18h22h418q20 0 30 2t22 8q21 1 45.5 13t45.5 30.5t35 41t14 45.5q0 27 -12.5 47t-29.5 34t-35 22l-28 14l-16 6q-8 3 -19 6l-27 9zM466 252h48q37 -3 52 -7.5t27 -14.5q12 -9 20 -26.5 t8 -47.5q0 -28 -12 -50.5t-30.5 -38t-41 -24t-43.5 -8.5h-24q-7 0 -17 3q-9 4 -16 9.5t-7 12.5v192h36z" />
<glyph unicode="C" horiz-adv-x="916" d="M554 0h-25h-18h-14q-8 0 -12 1q-23 2 -65 0h-13q-39 0 -84 5t-90.5 17t-87 33t-72.5 52t-48.5 74.5t-14.5 101.5q2 43 9 75t20 59q14 28 33.5 53.5t42.5 41.5q45 29 96 43.5t99 21.5h32q24 0 50.5 0.5t49.5 0.5l160 -1q115 -17 162 -6q41 10 126 10q10 0 14.5 -12.5 t6 -28.5t1 -32t-0.5 -22q0 -4 -0.5 -17.5t-0.5 -17.5q-9 -5 -12 -10l-5 -11q-2 -5 -6.5 -8t-16.5 -3q-17 0 -34 10l-33 21q-8 6 -17 12l-16 10q-7 5 -41 19l-95 36q-23 8 -39.5 12t-31 5.5t-29.5 1t-35 -1.5h-18h-10q-7 0 -10 -1q-20 -1 -29.5 -10.5t-17.5 -19.5 q-8 -11 -8 -23q1 -13 -2.5 -20t-3.5 -8v-307q0 -20 4.5 -42t14 -40.5t24.5 -30.5t37 -12q24 0 45 1.5t46 3.5t71 24q23 11 45.5 24.5t44.5 28.5l40 19q16 7 24 12q9 5 26 16l40 30l43 40v-190q0 -10 -0.5 -16t-0.5 -22l-24 -2h-326z" />
<glyph unicode="D" d="M507 545q-24 0 -39.5 -5.5t-23.5 -15.5t-11 -25.5t-3 -34.5l-1 -245v-54v-24q0 -11 -1 -21q4 -16 6 -34t12 -30q10 -11 27.5 -13t23.5 -2q29 -4 56 11.5t35 62.5v348q0 37 -23 59.5t-58 22.5zM562 580q22 -1 38 -1.5t26 -0.5h22q24 -1 48.5 -7t47.5 -14q24 -8 47.5 -17.5 t48.5 -30.5q26 -21 48.5 -42.5t38.5 -42.5t24 -51t8 -84v-11q0 -9 -0.5 -18.5t-0.5 -17.5v-12q-8 -18 -12 -32t-14 -29q-9 -15 -40 -52q-15 -18 -32 -30.5t-35.5 -23t-38 -20t-38.5 -21.5q-25 -7 -43.5 -11.5t-36.5 -6.5q-6 0 -15 -1t-21 -3l-622 2q20 22 41.5 29.5 t38.5 17.5q18 11 29 28.5t11 52.5v350l-80 85l-28 15h278h18h22h222z" />
<glyph unicode="E" horiz-adv-x="918" d="M430 292l-1 -73q0 -57 7.5 -93t27.5 -60q10 -12 19 -20t19.5 -15t41 -7t41.5 7t57 29q23 11 45.5 24.5t44.5 28.5q43 31 80.5 66.5t67.5 70.5l25 -20v-190q0 -10 -0.5 -16t-0.5 -22l-24 -2h-322l-548 2q20 22 41.5 29.5t38.5 17.5q18 11 29 28.5t11 52.5v350l-80 85 l-28 15h278h18h22h540l24 -2q0 -16 0.5 -22t0.5 -16v-190l-25 -20q-30 35 -67.5 70.5t-80.5 66.5q-22 15 -44.5 28.5t-45.5 24.5q-46 22 -96 40h-61q-4 0 -13 -2t-18.5 -6t-16.5 -9.5t-7 -12.5v-206q84 12 172 62q42 25 62 33.5t32 8.5v-240q-10 5 -34 16l-66 30 q-42 19 -83 33.5t-83 24.5z" />
<glyph unicode="F" horiz-adv-x="918" d="M558 560h-73q-4 0 -13 -2t-18.5 -6t-16.5 -9.5t-7 -12.5v-162v-44q84 12 172 62l58 28q20 10 40 22l2 -264q-25 25 -106 62q-42 19 -83 33.5t-83 24.5l-1 -73q0 -57 7.5 -93t27.5 -60q10 -12 19 -20t19.5 -15t24.5 -14l31 -17l-548 2q20 22 41.5 29.5t38.5 17.5 q18 11 29 28.5t11 52.5v350l-80 85l-28 15h278h18h22h540l24 -2q0 -16 0.5 -22t0.5 -16v-190l-25 -20q-30 35 -67.5 70.5t-80.5 66.5q-22 15 -44.5 28.5t-45.5 24.5z" />
<glyph unicode="G" horiz-adv-x="916" d="M572 308l308 2l24 -2q0 -16 0.5 -22t0.5 -16q0 -242 -1 -246v-22l-24 -2h-326h-25h-18h-14q-8 0 -12 1q-23 2 -65 0h-13q-39 0 -84 5t-90.5 17t-87 33t-72.5 52t-48.5 74.5t-14.5 101.5q2 43 9 75t20 59q14 28 33.5 53.5t42.5 41.5q45 29 96 43.5t99 21.5h32 q24 0 50.5 0.5t49.5 0.5l160 -1q115 -17 162 -6q41 10 126 10q10 0 14.5 -12.5t6 -28.5t1 -32t-0.5 -22q0 -4 -0.5 -17.5t-0.5 -17.5q-9 -5 -12 -10l-5 -11q-2 -5 -6.5 -8t-16.5 -3q-17 0 -34 10l-33 21q-8 6 -17 12l-16 10q-7 5 -41 19l-95 36q-23 8 -39.5 12t-31 5.5 t-29.5 1t-35 -1.5h-18h-10q-7 0 -10 -1q-20 -1 -29.5 -10.5t-17.5 -19.5q-8 -11 -8 -23q1 -13 -2.5 -20t-3.5 -8v-307q0 -20 4.5 -42t14 -40.5t24.5 -30.5t37 -12q24 0 45 1.5t46 3.5t71 24q12 6 22 10t22 10l24 12q14 6 32 16q37 27 54 36q-19 21 -64 53q-22 15 -44.5 28.5 t-45.5 24.5q-46 22 -70 58z" />
<glyph unicode="H" horiz-adv-x="974" d="M509 580h154h22h18h262l-12 -15l-80 -85v-350q0 -35 11 -52.5t29 -28.5l16 -8q6 -4 12.5 -9t15 -12.5t20.5 -19.5h-472q12 12 17.5 19t12.5 14l18 15q10 8 16 20q7 28 6 61q-1 8 -1 22v35v106h-80h-88l1 -187q-1 -5 1 -14t6 -23q8 -16 22 -26t20 -18q3 -4 8.5 -10 t13.5 -14h-472q12 12 20.5 19.5t15 12.5t12.5 8l16 9q18 11 29 28.5t11 52.5v350l-80 85l-12 15h262h18h22h154q-6 -10 -11.5 -15t-10.5 -7.5t-10 -3t-9 -2.5q-9 -4 -16 -9.5t-7 -12.5v-198h160l3 198q0 7 -7 12.5t-17 9.5q-4 2 -8.5 2.5t-9.5 3t-10.5 7.5t-11.5 15z" />
<glyph unicode="I" horiz-adv-x="558" d="M541 580l-56 -24q-7 -6 -14 -9t-13.5 -7.5t-13.5 -13.5t-15 -28v-279q0 -57 7.5 -93t27.5 -60q10 -12 19 -20t19.5 -15t24.5 -14l31 -17l-548 2q20 22 41.5 29.5t38.5 17.5q18 11 29 28.5t11 52.5l-1 368l-79 67l-28 15h26h270h22h201z" />
<glyph unicode="J" horiz-adv-x="980" d="M408 174v-18q0 -20 4.5 -42t14 -40.5t24.5 -30.5t37 -12q24 0 38.5 6.5t24.5 18t18 26.5t19 33v348v67q0 7 -7 12.5t-17 9.5q-4 2 -8.5 2.5t-9.5 3t-10.5 7.5t-11.5 15h154h22h18h262l-12 -15l-80 -85v-100v-236q-11 -46 -29 -58q-9 -7 -18 -12l-17 -11 q-18 -10 -37.5 -19.5t-46.5 -18.5q-29 -8 -52 -13t-45 -7.5t-44.5 -3.5t-49.5 -1h-30h-31h-31h-15q-7 0 -14 1h-13q-123 10 -173 33q-26 11 -46.5 24.5t-36.5 27.5q-33 30 -49 82v56l-80 85l-12 15h262h18h22h154q-6 -10 -11.5 -15t-10.5 -7.5t-10 -3t-9 -2.5 q-9 -4 -16 -9.5t-7 -12.5l-2 -32v-68z" />
<glyph unicode="K" horiz-adv-x="1004" d="M590 486q6 4 11.5 11.5t10.5 16.5l9 18q4 8 9 14q12 17 37 23.5t53 7.5q7 1 19 1h31q18 0 42 -0.5t54 -1.5q34 0 64 -2t70 -8q-43 -7 -64 -31t-33.5 -55.5t-22 -67t-30.5 -66.5q-8 -12 -20 -17l-24 -12l-13 -5q-9 -4 -23 -8q-16 -16 4 -24q25 -15 36 -21l24 -11 q12 -6 20 -18q21 -31 30.5 -66.5t22 -67t33.5 -55.5t64 -31q-40 -6 -70 -8t-64 -2h-47h-72q-55 0 -80 6q-25 7 -37 24q-5 6 -9 15l-9 17q-5 9 -10.5 16.5t-11.5 11.5l-6 32l-8 33q-7 36 -46 59l-82 10l-26 -2q3 -60 10.5 -96t27.5 -60q10 -12 19 -20t19.5 -15t24.5 -14 l31 -17l-548 2q20 22 41.5 29.5t38.5 17.5q18 11 29 28.5t11 52.5v350l-80 85l-27 15h28h289h180l-35 -20q-4 0 -13 -2t-18.5 -6t-16.5 -9.5t-7 -12.5v-176l136 2l10 65l8 33z" />
<glyph unicode="L" horiz-adv-x="930" d="M542 36q-24 -4 -40.5 1.5t-37.5 28.5q-20 25 -28 60l-7 37l1 331q12 18 19 25t14.5 13t20.5 15t37 32h-30l-173 1l-269 -1h-26l27 -14l80 -85v-350q0 -35 -11 -52.5t-29 -28.5q-17 -10 -38.5 -17.5t-41.5 -29.5l900 -2l10 10v6q0 6 0.5 13t0.5 14v11q-1 7 0.5 29.5 t-0.5 46.5t-11 42.5t-30 17.5l-10 -10q-38 -46 -160 -92q-62 -23 -103.5 -36.5t-64.5 -15.5z" />
<glyph unicode="M" horiz-adv-x="1306" d="M900 400q-16 31 -50 -18l-118 -314l-16 -36q-12 -24 -22.5 -27t-11.5 -3h-260l-5 9l-12 21l-13 26l-10 23q-13 26 -28 59l-30 69l-34 74q-18 38 -38 74q-65 91 -84 51q-2 -83 -3 -104q-1 -5 -1 -12v-15v-36q4 -44 20 -83t40 -70.5t55 -53.5t65 -32h-338q6 14 10.5 18 t7.5 8q4 4 16 17l24 28l24 29q12 14 16 20q1 10 6 27l4 12q1 5 2 12.5t1.5 20t0.5 34.5v164q0 151 -82 188h620l-8 -23l-7 -15.5t-5.5 -11t-5.5 -10.5q-4 -11 -7 -23t-3 -31q12 -54 20 -86t12 -44l8 -24l7 -25l10 -38q5 -19 11 -34t12 -22t14 9l144 378h444l-25 -13l-80 -85 v-350q0 -35 11 -52.5t29 -28.5t38 -18q22 -8 30 -33h-515l22 22q6 6 14 12t17.5 14t19.5 20q20 24 27.5 60t7.5 93z" />
<glyph unicode="N" horiz-adv-x="900" d="M120 120q1 10 6 27q2 9 4.5 15.5t4.5 15.5t4.5 23.5t4.5 38.5v172q-4 20 -13 45.5t-29 49.5q-19 24 -39 40.5t-33 20.5l10 12h200h50h180q7 0 32 -22t55 -53l62 -63l50 -53l21 -21q2 -2 5 -7l9 -10l15 -18l17 -20l14 -18l10 -10h5q13 0 13 55v124l-18 33q-5 10 -14 18.5 t-18 18.5q-4 5 -10.5 10.5t-14.5 11.5q-17 14 -13 24h196q26 -4 0 -20q-14 -16 -28 -35t-28 -41q-2 -200 -2.5 -304t0.5 -118t1.5 -23t0.5 -14q0 -6 -1 -15.5t-9 -9.5h-240q-14 1 -42.5 23.5t-64 57t-74.5 76.5l-75 83l-63 76q-28 34 -41 53h-34v-133q4 -36 17 -77.5 t37 -73.5q24 -31 55 -53t65 -32h-350q4 5 15.5 13.5t14.5 12.5q4 4 15 17l25 28l24 29q12 14 16 20z" />
<glyph unicode="O" horiz-adv-x="956" d="M10 284q-3 -58 14.5 -101.5t48.5 -74.5t72.5 -52t87 -33t90.5 -17t84 -5h13q42 2 65 0q6 -1 12 -1h14h30q28 0 50 1t43.5 4t46.5 7l59 10q19 12 38.5 21.5t38 20t35.5 23t32 30.5q31 37 40 52q10 15 14 29t12 32v12q0 8 0.5 17.5t0.5 18.5v11q0 54 -8 84t-24 51 t-38.5 42.5t-48.5 42.5q-25 21 -48.5 30.5t-47.5 17.5q-23 8 -47.5 14t-48.5 7h-22q-20 0 -46.5 0.5t-53.5 0.5h-43h-33q-23 0 -49.5 -0.5t-50.5 -0.5h-32q-48 -7 -99 -21.5t-96 -43.5q-23 -16 -42.5 -41.5t-33.5 -53.5q-13 -27 -20 -59t-9 -75zM499 545q35 0 58 -22.5 t23 -59.5v-348q-11 -18 -19 -33t-18 -26.5t-24.5 -18t-38.5 -6.5q-22 0 -37 12t-24.5 30.5t-14 40.5t-4.5 42v307q0 1 3.5 8t2.5 20q0 12 8 23q8 10 17.5 19.5t29.5 10.5q5 1 10 1h10h18z" />
<glyph unicode="P" horiz-adv-x="954" d="M466 330h48q37 4 52 8.5t27 14.5t20 28t8 49q0 28 -12 51.5t-30 40t-40 25.5t-43 9q-10 0 -21.5 -1.5t-21.5 -4.5t-16.5 -8t-6.5 -12v-200h36zM742 296l-312 -2l-1 -75q-1 -57 7 -93t28.5 -59.5t55 -37.5t86.5 -27h-596q20 22 41.5 29.5t38.5 17.5q18 11 29 28.5t11 52.5 v350l-80 85l-28 13l50 2h246h378l50 -2q25 -1 37 -3l24 -4q22 -2 47.5 -14t46.5 -30.5t35 -41t14 -45.5q0 -38 -20.5 -60t-45.5 -36l-31 -18q-11 -6 -23.5 -11t-32 -9t-55.5 -10z" />
<glyph unicode="Q" horiz-adv-x="956" d="M499 545h-18h-10q-7 0 -10 -1q-20 -1 -29.5 -10.5t-17.5 -19.5q-8 -11 -8 -23q1 -13 -2.5 -20t-3.5 -8v-317q6 8 11 13t9 7l22 11q15 7 48 7q32 0 46 -6q13 -6 44 -32v317q0 37 -23 59.5t-58 22.5zM348 -9l-2 13q-68 6 -113.5 18.5t-87.5 33.5q-30 15 -56 36.5t-44 50 t-27.5 63.5t-7.5 78t9 75t20 59q14 28 33.5 53.5t42.5 41.5q45 29 96 43.5t99 21.5h32q24 0 50.5 0.5t49.5 0.5h33h43q27 0 53.5 -0.5t46.5 -0.5h22q24 -1 48.5 -7t47.5 -14q24 -8 47.5 -17.5t48.5 -30.5q26 -21 48.5 -42.5t38.5 -42.5t24 -51t8 -84v-11q0 -9 -0.5 -18.5 t-0.5 -17.5v-12q-8 -18 -12 -32t-14 -29q-9 -15 -40 -52q-15 -18 -32 -30.5t-35.5 -23t-38 -20t-38.5 -21.5q-17 -3 -41.5 -8t-46.5 -8l4 -7q10 -10 14.5 -19.5t11.5 -18.5q12 -18 30.5 -30.5t47.5 -17.5q-39 -6 -69.5 -8.5t-64.5 -2.5h-47q-17 0 -44 -1.5t-55.5 0t-53 8.5 t-36.5 24q-5 6 -9.5 10t-10.5 10l-12 12q-6 6 -10 26z" />
<glyph unicode="R" horiz-adv-x="1034" d="M630 90q-6 30 -14 65.5t-23 66.5q-13 30 -39 53q-22 22 -124 19l-1 -75q-1 -57 7 -93t28.5 -59.5t55 -37.5t86.5 -27h-596q20 22 41.5 29.5t38.5 17.5q18 11 29 28.5t11 52.5v350l-80 85l-28 13l18 2h278h22h405q30 -2 41 -4l23 -4q22 -3 46.5 -15.5t45.5 -30.5t35 -40.5 t14 -45.5q0 -38 -20.5 -60t-45 -36t-45 -23t-20.5 -21q0 -18 8 -26.5t19.5 -14.5t23.5 -11.5t20 -17.5q21 -31 30.5 -66.5t22 -67t33.5 -55.5t64 -31q-40 -6 -70 -8t-64 -2h-47h-72q-55 0 -80 6q-25 7 -37 24q-5 6 -10 14l-8 18q-5 9 -10.5 16.5t-11.5 11.5zM466 330h48 q37 4 52 8.5t27 14.5t20 28t8 49q0 27 -11.5 51t-30 41.5t-43 27.5t-51.5 10q-4 0 -13 -2t-18.5 -6t-16.5 -9.5t-7 -12.5v-200h36z" />
<glyph unicode="S" horiz-adv-x="826" d="M520 581h260l14 -16q0 -3 0.5 -14t0.5 -15v-18q0 -14 -4 -30t-15 -44q-32 32 -61 50.5t-58 33.5q-29 16 -57 24q-24 9 -144 7q-17 -1 -42.5 -4t-49.5 -12t-41 -24.5t-17 -42.5q0 -12 9 -25t21 -25q13 -12 23.5 -17t26.5 -9l29 -4q12 -1 22 -1q39 -3 87 -9q18 -2 36 -5 t58 -11q30 -6 50.5 -10.5t27.5 -6.5q14 -3 33 -6.5t37 -12.5q8 -4 14 -11.5t11 -12.5l11 -13q6 -7 14 -22v-11q0 -8 0.5 -18t0.5 -19v-10q0 -47 -16 -84.5t-44 -65t-67 -44.5t-84 -22q-4 -1 -8 -1h-6h-11q-2 1 -86 1h-239h-240v29v138l10 19q1 -2 4.5 -5.5t5.5 -4.5l30 -19 l25 -22l36 -36l36 -36q17 -17 23 -24q6 3 31 -2q22 -4 46 -3q5 1 16 1h20h57q32 2 54 3t34 1q24 0 39 13.5t15 36.5q0 16 -7.5 28t-19.5 20.5t-26.5 13t-28.5 6.5q-8 1 -29.5 2.5t-45.5 2.5q-24 2 -57.5 10t-73.5 20q-72 32 -98 51q-13 10 -22 18l-17 14l-21 18 q-10 9 -18.5 20.5t-13.5 26.5t-5 35q0 44 18.5 76t49 55t70 37.5t80.5 22.5t81 11t72 3h134z" />
<glyph unicode="T" horiz-adv-x="912" d="M636 512q39 -11 73.5 -31.5t65 -45.5t56.5 -53l49 -52l25 20v190q0 10 -1.5 17t-5.5 19l-18 4h-372h-22h-18h-294h-139l-18 -4q-4 -12 -5.5 -19t-1.5 -17v-190l25 -20q22 26 48.5 53t57 52t65 46t72.5 35l20 -36v-350q0 -35 -11 -52.5t-29 -28.5q-17 -10 -38.5 -17.5 t-41.5 -29.5l548 -2l-32 17q-13 7 -23.5 14t-19.5 15t-19 20q-20 24 -27.5 60t-7.5 93l-1 261z" />
<glyph unicode="U" horiz-adv-x="980" d="M888 380v-236q-11 -46 -29 -58q-9 -7 -18 -12l-17 -11q-18 -10 -37.5 -19.5t-46.5 -18.5q-29 -8 -52 -13t-45 -7.5t-44.5 -3.5t-49.5 -1h-30h-14q-8 0 -12 1q-23 2 -65 0h-13q-123 10 -173 33q-26 11 -46.5 24.5t-36.5 27.5q-33 30 -49 82v312l-80 85l-12 15h262h18h22 h154q-6 -10 -11.5 -15t-10.5 -7.5t-10 -3t-9 -2.5q-9 -4 -16 -9.5t-7 -12.5v-72v-64v-104l1 -145q0 -22 3 -37.5t12 -34.5q10 -18 25 -30t37 -12q24 0 38.5 6.5t24.5 18t18 26.5t19 33v348v67q0 7 -7 12.5t-17 9.5q-4 2 -8.5 2.5t-9.5 3t-10.5 7.5t-11.5 15h154h22h18h262 l-12 -15l-80 -85v-100z" />
<glyph unicode="V" d="M952 576q28 -4 -16 -32q-1 -2 -7 -5.5t-13 -6.5l-13 -7q-6 -3 -7 -4q-55 -49 -89 -112t-60 -131l-50 -137q-25 -69 -61 -130q-2 -2 -5.5 -6.5t-4.5 -4.5h-260l-5 9l-11 22l-13 26l-11 22q-13 26 -27 59l-31 69l-34 74q-18 38 -38 74q-42 76 -88 130.5t-100 92.5h592 l-8 -23l-7 -15.5t-5.5 -11t-5.5 -10.5q-4 -11 -7 -23t-3 -31q12 -54 20 -86t12 -44l8 -24l7 -25l10 -38q5 -19 11 -34t10 -22t12 -11q11 4 20 16l86 232q8 38 4 44q-3 14 -13 27l-9 15q-4 7 -9 14q-7 12 -89 50h32h5h5q7 -1 50 0h132z" />
<glyph unicode="W" horiz-adv-x="1306" d="M411 180q16 -31 50 18l118 314l16 36q12 24 22.5 27t11.5 3h260l5 -9l11 -21l13 -26l11 -23q13 -26 27 -59l31 -69l34 -74q18 -38 38 -74q64 -92 84 -51v105v62q0 43 -15.5 82.5t-40 71t-56 53.5t-64.5 32h338q-6 -14 -10.5 -18t-7.5 -8q-4 -4 -16 -17l-24 -28l-25 -29 q-11 -14 -15 -20q-2 -11 -6 -27l-4 -12q-1 -5 -2 -12.5t-1.5 -20t-0.5 -34.5v-164q0 -151 82 -188h-620l8 23l7 15.5t5.5 11t5.5 10.5q4 11 7 23t3 31q-12 54 -20 86t-12 44l-8 24l-7 25l-10 38q-5 19 -11 34t-12 22t-14 -9l-144 -376l-447 -2l28 13l80 85v350 q0 35 -11 52.5t-29 28.5q-8 5 -17.5 9t-20.5 8q-21 7 -29 33h516q-18 -15 -24 -21t-14 -12t-17.5 -14t-19.5 -20q-20 -24 -27.5 -60t-7.5 -93z" />
<glyph unicode="X" horiz-adv-x="900" d="M602 380l-22 -24q-2 4 -20 24t-52 55l-50 55q-17 19 -18 20q2 1 14 15.5t28 24.5t19 18t-33 10h-460q-2 -17 8.5 -29.5t29.5 -16.5q16 -8 24 -14l25 -18q18 -14 165 -196l34 -46l-22 -33l-106 -116l-51 -47q-19 -17 -25 -21q-32 -8 -58 -25q-24 -16 14 -17h236h78 q14 10 16 18q-18 15 -39.5 19t-39.5 10t-30 22t-12 55l9 16q4 6 10 13l14 16l26 29l22 24q5 -8 71 -80q68 -71 69 -74q-2 -1 -14 -14t-24 -19q-11 -5 -19 -20q-7 -13 29 -14h460q2 15 -8.5 28t-29.5 17q-16 8 -24 14l-25 18q-18 14 -165 196l-14 21l-20 28l22 30l106 116 l51 47q19 17 25 21q32 8 58 25q28 17 -14 17h-238h-72q-18 -9 -20 -18q18 -15 39.5 -19t39.5 -10t30 -22t12 -55q-6 -11 -9.5 -16.5t-9.5 -11.5l-14 -17z" />
<glyph unicode="Y" horiz-adv-x="880" d="M602 380l-22 -24q-2 4 -20 24t-52 55l-51 55q-16 19 -17 20q1 0 6 2l12 7l16 8l14 7q12 6 14 24q1 19 -34 20h-460q-2 -17 8.5 -29.5t29.5 -16.5q16 -8 24 -14l25 -18q18 -14 165 -196l10 -24v-120q0 -27 -22.5 -48.5t-50 -40t-51 -36t-24.5 -35.5h138h462q-45 53 -62 66 q-7 5 -13.5 9t-12.5 7q-11 7 -22.5 19.5t-19.5 32.5q1 28 0.5 63t-1.5 78q0 11 12.5 28t40.5 49l106 116l51 47q19 17 25 21q16 4 28.5 8t21.5 8q20 8 -8 26h-236h-76q-14 -9 -16 -18q18 -15 39.5 -19t39.5 -10t30 -22t12 -55q-6 -11 -9.5 -16.5t-9.5 -11.5l-14 -17z" />
<glyph unicode="Z" horiz-adv-x="926" d="M452 546l-10 2h-28q-52 0 -114 -20l-95 -36q-34 -14 -41 -19l-17 -10l-16 -12l-34 -21q-16 -10 -33 -10q-13 0 -17.5 3t-6.5 8l-5 10q-2 6 -11 11q0 4 -0.5 17.5t-0.5 17.5q0 7 -0.5 22.5t1 30.5t5.5 27t14 13h551h22h18l278 -2l-28 -13l-82 -93l-202 -281 q-75 -103 -104 -135q-11 -13 2.5 -17.5t43.5 -2.5q23 2 64 15.5t104 36.5q124 47 160 92l10 10q21 1 30 -17.5t11 -42.5t0.5 -46.5t-0.5 -29.5v-11q0 -7 -0.5 -14t-0.5 -13v-6l-10 -10l-900 2q18 21 41 29q22 8 105 115l110 152l82 106l54 68q21 25 32 37q21 21 18 37z" />
<glyph unicode="[" horiz-adv-x="478" d="M429 580h-201h-22h-189v-82l1 -368l1 -130h427l-32 17q-13 7 -23.5 14t-19.5 15t-19 20q-20 24 -27.5 60t-7.5 93v279q8 19 15 28t14 13.5t13.5 7.5t13.5 9z" />
<glyph unicode="\" horiz-adv-x="974" d="M462 580h-154h-22h-18h-262l12 -15l80 -85q463 -398 459 -412q-8 -16 -22 -26t-20 -18q-3 -4 -8.5 -10t-13.5 -14h472q-12 12 -20.5 19.5t-15 12.5t-13.5 8l-15 9q-18 11 -29 28.5t-474 452.5q0 7 7 12.5t17 9.5q4 2 8.5 2.5t9.5 3t10.5 7.5t11.5 15z" />
<glyph unicode="]" horiz-adv-x="478" d="M34 580h201h22h189v-82l-1 -368l-1 -130h-427l32 17q13 7 23.5 14t19.5 15t19 20q20 24 27.5 60t7.5 93v279q-8 19 -15 28t-14 13.5t-13.5 7.5t-13.5 9z" />
<glyph unicode="_" horiz-adv-x="518" d="M-6 -24v-80h535v80h-535z" />
<glyph unicode="a" horiz-adv-x="938" d="M10 12q2 0 3 -1.5t4.5 -4t10.5 -4t21 -1.5q7 -1 12 -1h9h10h130q43 1 50 0h5h5h32q-82 37 -90 50q-5 10 -13 21.5t-13 21.5q-5 9 -6.5 19.5t-1.5 31.5h48h28h104h24v-30q0 -19 -3 -31t-8 -23q-4 -11 -9.5 -21.5t-15.5 -38.5h592q-54 38 -100.5 92.5t-88.5 130.5 q-19 36 -36 74l-34 74l-31 69q-15 33 -28 59l-10 23l-14 26l-11 21l-5 9h-260q-1 0 -4.5 -4.5t-5.5 -6.5q-36 -61 -60 -130l-51 -137q-26 -68 -60 -131t-89 -112q-1 -1 -7 -4t-13 -7l-13 -7q-6 -4 -7 -5q-1 0 -1.5 -4.5t-0.5 -6.5t0.5 -6t1.5 -5zM362 180h-104l-58 2 q1 2 6 19l10 41q7 24 24 75l14 41q6 16 10 25t7 12t8 3q12 0 20.5 -9t14.5 -24t11 -34l10 -38q7 -25 15 -49t12 -64z" />
<glyph unicode="b" d="M466 330h-36v200q0 7 7 12.5t16.5 9.5t18.5 6t13 2q27 0 51.5 -10t43 -27.5t30 -41.5t11.5 -51q0 -31 -8 -49t-20 -28t-27 -14.5t-52 -8.5h-48zM742 292l56 14q19 5 31.5 9.5t23.5 10.5l31 18q25 14 45.5 36t20.5 60q0 22 -14 45t-35 41.5t-45.5 30.5t-45.5 13 q-11 4 -24 5t-41 5h-405h-22h-262l-34 -2l28 -13l80 -85v-378l-80 -85l-24 -15h274h18h22h418q20 0 30 2t22 8q21 1 45.5 13t45.5 30.5t35 41t14 45.5q0 27 -12.5 47t-29.5 34t-35 22l-28 14l-16 6q-8 3 -19 6l-27 9zM466 252h48q37 -3 52 -7.5t27 -14.5q12 -9 20 -26.5 t8 -47.5q0 -28 -12 -50.5t-30.5 -38t-41 -24t-43.5 -8.5h-24q-7 0 -17 3q-9 4 -16 9.5t-7 12.5v192h36z" />
<glyph unicode="c" horiz-adv-x="916" d="M554 0h-25h-18h-14q-8 0 -12 1q-23 2 -65 0h-13q-39 0 -84 5t-90.5 17t-87 33t-72.5 52t-48.5 74.5t-14.5 101.5q2 43 9 75t20 59q14 28 33.5 53.5t42.5 41.5q45 29 96 43.5t99 21.5h32q24 0 50.5 0.5t49.5 0.5l160 -1q115 -17 162 -6q41 10 126 10q10 0 14.5 -12.5 t6 -28.5t1 -32t-0.5 -22q0 -4 -0.5 -17.5t-0.5 -17.5q-9 -5 -12 -10l-5 -11q-2 -5 -6.5 -8t-16.5 -3q-17 0 -34 10l-33 21q-8 6 -17 12l-16 10q-7 5 -41 19l-95 36q-23 8 -39.5 12t-31 5.5t-29.5 1t-35 -1.5h-18h-10q-7 0 -10 -1q-20 -1 -29.5 -10.5t-17.5 -19.5 q-8 -11 -8 -23q1 -13 -2.5 -20t-3.5 -8v-307q0 -20 4.5 -42t14 -40.5t24.5 -30.5t37 -12q24 0 45 1.5t46 3.5t71 24q23 11 45.5 24.5t44.5 28.5l40 19q16 7 24 12q9 5 26 16l40 30l43 40v-190q0 -10 -0.5 -16t-0.5 -22l-24 -2h-326z" />
<glyph unicode="d" d="M507 545q-24 0 -39.5 -5.5t-23.5 -15.5t-11 -25.5t-3 -34.5l-1 -245v-54v-24q0 -11 -1 -21q4 -16 6 -34t12 -30q10 -11 27.5 -13t23.5 -2q29 -4 56 11.5t35 62.5v348q0 37 -23 59.5t-58 22.5zM562 580q22 -1 38 -1.5t26 -0.5h22q24 -1 48.5 -7t47.5 -14q24 -8 47.5 -17.5 t48.5 -30.5q26 -21 48.5 -42.5t38.5 -42.5t24 -51t8 -84v-11q0 -9 -0.5 -18.5t-0.5 -17.5v-12q-8 -18 -12 -32t-14 -29q-9 -15 -40 -52q-15 -18 -32 -30.5t-35.5 -23t-38 -20t-38.5 -21.5q-25 -7 -43.5 -11.5t-36.5 -6.5q-6 0 -15 -1t-21 -3l-622 2q20 22 41.5 29.5 t38.5 17.5q18 11 29 28.5t11 52.5v350l-80 85l-28 13l278 2h18h22h222z" />
<glyph unicode="e" horiz-adv-x="926" d="M542 36q-24 -4 -40.5 1.5t-37.5 28.5q-20 25 -28 60q-7 37 -6 166q42 -10 83 -24.5t83 -33.5q82 -38 106 -62v272q-8 -4 -33 -19l-67 -39q-87 -50 -172 -62v206q0 7 7 12.5t16.5 9.5t18.5 6t13 2h29q32 -6 61.5 -14t58.5 -18q122 -45 136 -55l16 -11q9 -5 17 -11l33 -21 q17 -10 34 -10q12 0 16.5 3t7 7.5t5 10.5t11.5 11q0 4 0.5 17.5t0.5 17.5q0 6 0.5 22t-1 32t-6 28.5t-14.5 12.5l-550 -2h-22h-18h-278l28 -15l80 -85v-350q0 -35 -11 -52.5t-29 -28.5q-17 -10 -38.5 -17.5t-41.5 -29.5l900 -2l10 10v6q0 6 0.5 13t0.5 14v11q-1 7 0.5 29.5 t-0.5 46.5t-11 42.5t-30 17.5l-10 -10q-38 -46 -160 -92q-62 -23 -103.5 -36.5t-64.5 -15.5z" />
<glyph unicode="f" horiz-adv-x="922" d="M430 292q42 -10 83 -24.5t83 -33.5q82 -38 106 -62v272q-8 -4 -33 -19l-67 -39q-87 -50 -172 -62v206q0 7 7 12.5t16.5 9.5t18.5 6t13 2h29q32 -6 61.5 -14t58.5 -18q122 -45 136 -55l16 -11q9 -5 17 -11l33 -21q17 -10 34 -10q12 0 16.5 3t7 7.5t5 10.5t11.5 11 q0 4 0.5 17.5t0.5 17.5q0 6 0.5 22t-1 32t-6 28.5t-14.5 12.5l-550 -2h-22h-18h-278l28 -15l80 -85v-350q0 -35 -11 -52.5t-29 -28.5q-17 -10 -38.5 -17.5t-41.5 -29.5l548 -2l-32 17q-13 7 -23.5 14t-19.5 15t-19 20q-20 25 -28 60q-7 37 -6 166z" />
<glyph unicode="g" horiz-adv-x="920" d="M554 582q-7 -1 -14 -1h-11h-18h-14q-8 0 -12 -1q-23 -2 -65 0h-13q-39 0 -84 -5t-90.5 -17t-87 -33t-72.5 -52t-48.5 -74.5t-14.5 -101.5q2 -43 9 -75t20 -59q14 -28 33.5 -53.5t42.5 -41.5q45 -29 96 -43.5t99 -21.5h32q24 0 50.5 -0.5t49.5 -0.5l160 1q115 16 162 6 q43 -9 126 -9q9 0 14 12t6 28q1 8 0 36.5t-4 79.5l-1 114q0 10 -0.5 16t-0.5 22l-24 2l-308 -2q24 -36 70 -58q23 -11 45.5 -24.5t44.5 -28.5q45 -32 58 -39q11 -7 13 -28q-8 -6 -17 -12l-16 -10q-7 -5 -41 -19l-95 -36q-23 -8 -39.5 -12t-31 -5.5t-29.5 -1t-35 1.5h-18h-10 q-7 0 -10 1q-20 1 -29.5 10.5t-17.5 19.5q-8 11 -8 23q1 13 -2.5 20t-3.5 8v307q0 20 4.5 42t14 40.5t24.5 30.5t37 12q24 0 45 -1.5t46 -3.5t71 -24q23 -11 45.5 -24.5t44.5 -28.5l40 -18q16 -8 24 -13q9 -5 26 -17l40 -29l43 -40v190q0 10 -0.5 16t-0.5 22l-24 2z" />
<glyph unicode="h" horiz-adv-x="974" d="M509 580h154h22h18h262l-12 -15l-80 -85v-350q0 -35 11 -52.5t29 -28.5l16 -8q6 -4 12.5 -9t15 -12.5t20.5 -19.5h-472q12 12 17.5 19t12.5 14l18 15q10 8 16 20q7 28 6 61q-1 8 -1 22v35v106h-80h-88l1 -187q-1 -5 1 -14t6 -23q8 -16 22 -26t20 -18q3 -4 8.5 -10 t13.5 -14h-472q12 12 20.5 19.5t15 12.5t12.5 8l16 9q18 11 29 28.5t11 52.5v350l-80 85l-12 15h262h18h22h154q-6 -10 -11.5 -15t-10.5 -7.5t-10 -3t-9 -2.5q-9 -4 -16 -9.5t-7 -12.5v-198h160l3 198q0 7 -7 12.5t-17 9.5q-4 2 -8.5 2.5t-9.5 3t-10.5 7.5t-11.5 15z" />
<glyph unicode="i" horiz-adv-x="558" d="M541 580l-56 -24q-7 -6 -14 -9t-13.5 -7.5t-13.5 -13.5t-15 -28v-279q0 -57 7.5 -93t27.5 -60q10 -12 19 -20t19.5 -15t24.5 -14l31 -17l-548 2q20 22 41.5 29.5t38.5 17.5q18 11 29 28.5t11 52.5l-1 368l-79 67l-28 15h26h270h22h201z" />
<glyph unicode="j" horiz-adv-x="980" d="M408 174v-18q0 -20 4.5 -42t14 -40.5t24.5 -30.5t37 -12q24 0 38.5 6.5t24.5 18t18 26.5t19 33v348v67q0 7 -7 12.5t-17 9.5q-4 2 -8.5 2.5t-9.5 3t-10.5 7.5t-11.5 15h154h22h18h262l-12 -15l-80 -85v-100v-236q-11 -46 -29 -58q-9 -7 -18 -12l-17 -11 q-18 -10 -37.5 -19.5t-46.5 -18.5q-29 -8 -52 -13t-45 -7.5t-44.5 -3.5t-49.5 -1h-30h-31h-31q-8 0 -42 1q-123 10 -173 33q-26 11 -46.5 24.5t-36.5 27.5q-33 30 -49 82v56l-80 85l-12 15h262h18h22h154q-6 -10 -11.5 -15t-10.5 -7.5t-10 -3t-9 -2.5q-9 -4 -16 -9.5 t-7 -12.5l-2 -32v-68z" />
<glyph unicode="k" horiz-adv-x="996" d="M634 380l26 29l15 17q5 6 8.5 11.5t9.5 16.5q0 39 -12 55t-30 22t-39.5 10t-39.5 19q2 10 16 20h78h236q43 -2 14 -19q-26 -17 -58 -25q-6 -4 -25 -21l-51 -47l-106 -116q11 -39 36 -60.5t46 -21.5q41 -5 52 -11l24 -11q12 -6 20 -18q21 -31 30.5 -66.5t22 -67 t33.5 -55.5t64 -31q-40 -6 -70 -8t-64 -2h-47h-72q-55 0 -80 6q-25 7 -37 24q-5 6 -9 15l-9 17q-5 9 -10.5 16.5t-11.5 11.5l-6 32l-8 33q-7 36 -46 59l-82 10l-26 -2q3 -60 10.5 -96t27.5 -60q10 -12 19 -20t19.5 -15t24.5 -14l31 -17l-548 2q20 22 41.5 29.5t38.5 17.5 q18 11 29 28.5t11 52.5v350l-80 85l-29 14l297 1h22h180l-35 -20q-4 0 -13 -2t-18.5 -6t-16.5 -9.5t-7 -12.5v-176l182 2z" />
<glyph unicode="l" horiz-adv-x="914" d="M520 580l-35 -20q-4 0 -13 -2t-18.5 -6t-16.5 -9.5t-7 -12.5l-1 -311q0 -57 7.5 -93t27.5 -60q10 -12 16 -17t22 -9t68 -4q26 2 72 24q23 11 45.5 24.5t44.5 28.5q43 31 80.5 66.5t67.5 70.5l25 -20v-190q0 -10 -0.5 -16t-0.5 -22l-24 -2l-871 1q21 23 42.5 30.5 t38.5 17.5q18 11 29 28.5t11 52.5v350l-80 85l-28 15h296h22h180z" />
<glyph unicode="m" horiz-adv-x="1142" d="M6 16q22 -16 72 -16h153h59h53h69q0 28 -7.5 47.5t-7.5 42.5q0 16 8.5 39l18.5 48l21 47q10 22 13 36q16 24 17 30q2 8 6.5 14.5t16.5 6.5t21 -14.5t16 -34t10.5 -39t3.5 -28.5q0 -17 -9 -45t-24 -54q-14 -27 -33 -46.5t-43 -49.5h132h228h52q44 5 34 21q-10 17 -19 25.5 t-9 23.5v110q52 124 64 136h8q16 -11 26 -42q8 -29 18 -61l22 -69q4 -24 5 -40.5t-7 -33.5t-21 -29t-33 -12q-32 -25 -9 -26l25 -5l75 2h31h24h28q30 1 32 12q-17 8 -31.5 22t-27.5 33q-13 20 -30 57t-37 94q-34 128 -60.5 211.5t-46.5 131.5l-25 19h-24h-156l-20 -10 q-2 -5 -6 -18t-9 -27.5t-9 -27.5t-6 -17q-4 -9 -14 -37l-23 -57q-12 -30 -23.5 -53.5t-18.5 -23.5q-16 0 -43 40l-79 231h-9h-180l-140 -356l-57 -143l-33 -33q-28 -16 -32 -32z" />
<glyph unicode="n" horiz-adv-x="900" d="M120 120q1 10 6 27q2 9 4.5 15.5t4.5 15.5t4.5 23.5t4.5 38.5v172q-4 20 -13 45.5t-29 49.5q-19 24 -39 40.5t-33 20.5l10 12h200h50h180q7 0 32 -22t55 -53l62 -63l50 -53l21 -21q2 -2 5 -7l9 -10l15 -18l17 -20l14 -18l10 -10h5q13 0 13 55v124l-18 33q-5 10 -14 18.5 t-18 18.5q-4 5 -10.5 10.5t-14.5 11.5q-17 14 -13 24h196q26 -4 0 -20q-14 -16 -28 -35t-28 -41q-2 -200 -2.5 -304t0.5 -118t1.5 -23t0.5 -14q0 -6 -1 -15.5t-9 -9.5h-240q-14 1 -42.5 23.5t-64 57t-74.5 76.5l-75 83l-63 76q-28 34 -41 53h-34v-133q4 -36 17 -77.5 t37 -73.5q24 -31 55 -53t65 -32h-350q4 5 15.5 13.5t14.5 12.5q4 4 15 17l25 28l24 29q12 14 16 20z" />
<glyph unicode="o" horiz-adv-x="956" d="M10 284q-3 -58 14.5 -101.5t48.5 -74.5t72.5 -52t87 -33t90.5 -17t84 -5h13q42 2 65 0q6 -1 12 -1h14h30q28 0 50 1t43.5 4t46.5 7l59 10q19 12 38.5 21.5t38 20t35.5 23t32 30.5q31 37 40 52q10 15 14 29t12 32v12q0 8 0.5 17.5t0.5 18.5v11q0 54 -8 84t-24 51 t-38.5 42.5t-48.5 42.5q-25 21 -48.5 30.5t-47.5 17.5q-23 8 -47.5 14t-48.5 7h-22q-20 0 -46.5 0.5t-53.5 0.5h-43h-33q-23 0 -49.5 -0.5t-50.5 -0.5h-32q-48 -7 -99 -21.5t-96 -43.5q-23 -16 -42.5 -41.5t-33.5 -53.5q-13 -27 -20 -59t-9 -75zM499 545q35 0 58 -22.5 t23 -59.5v-348q-11 -18 -19 -33t-18 -26.5t-24.5 -18t-38.5 -6.5q-22 0 -37 12t-24.5 30.5t-14 40.5t-4.5 42v307q0 1 3.5 8t2.5 20q0 12 8 23q8 10 17.5 19.5t29.5 10.5q5 1 10 1h10h18z" />
<glyph unicode="p" horiz-adv-x="954" d="M466 330h48q37 4 52 8.5t27 14.5t20 28t8 49q0 28 -12 51.5t-30 40t-40 25.5t-43 9q-10 0 -21.5 -1.5t-21.5 -4.5t-16.5 -8t-6.5 -12v-200h36zM742 296l-312 -2l-1 -75q-1 -57 7 -93t28.5 -59.5t55 -37.5t86.5 -27h-596q20 22 41.5 29.5t38.5 17.5q18 11 29 28.5t11 52.5 v350l-80 85l-28 13l50 2h246h378l50 -2q25 -1 37 -3l24 -4q22 -2 47.5 -14t46.5 -30.5t35 -41t14 -45.5q0 -38 -20.5 -60t-45.5 -36l-31 -18q-11 -6 -23.5 -11t-32 -9t-55.5 -10z" />
<glyph unicode="q" horiz-adv-x="956" d="M499 545h-18h-10q-7 0 -10 -1q-20 -1 -29.5 -10.5t-17.5 -19.5q-8 -11 -8 -23q1 -13 -2.5 -20t-3.5 -8v-317q6 8 11 13t9 7l22 11q15 7 48 7q32 0 46 -6q13 -6 44 -32v317q0 37 -23 59.5t-58 22.5zM348 -9l-2 13q-68 6 -113.5 18.5t-87.5 33.5q-30 15 -56 36.5t-44 50 t-27.5 63.5t-7.5 78t9 75t20 59q14 28 33.5 53.5t42.5 41.5q45 29 96 43.5t99 21.5h32q24 0 50.5 0.5t49.5 0.5h33h43q27 0 53.5 -0.5t46.5 -0.5h22q24 -1 48.5 -7t47.5 -14q24 -8 47.5 -17.5t48.5 -30.5q26 -21 48.5 -42.5t38.5 -42.5t24 -51t8 -84v-11q0 -9 -0.5 -18.5 t-0.5 -17.5v-12q-8 -18 -12 -32t-14 -29q-9 -15 -40 -52q-15 -18 -32 -30.5t-35.5 -23t-38 -20t-38.5 -21.5q-17 -3 -41.5 -8t-46.5 -8l4 -7q10 -10 14.5 -19.5t11.5 -18.5q12 -18 30.5 -30.5t47.5 -17.5q-39 -6 -69.5 -8.5t-64.5 -2.5h-47q-17 0 -44 -1.5t-55.5 0t-53 8.5 t-36.5 24q-5 6 -9.5 10t-10.5 10l-12 12q-6 6 -10 26z" />
<glyph unicode="r" horiz-adv-x="1034" d="M630 90q-6 30 -14 65.5t-23 66.5q-13 30 -39 53q-22 22 -124 19l-1 -75q-1 -57 7 -93t28.5 -59.5t55 -37.5t86.5 -27h-596q20 22 41.5 29.5t38.5 17.5q18 11 29 28.5t11 52.5v350l-80 85l-28 13l18 2h278h22h405q30 -2 41 -4l23 -4q22 -3 46.5 -15.5t45.5 -30.5t35 -40.5 t14 -45.5q0 -38 -20.5 -60t-45 -36t-45 -23t-20.5 -21q0 -18 8 -26.5t19.5 -14.5t23.5 -11.5t20 -17.5q21 -31 30.5 -66.5t22 -67t33.5 -55.5t64 -31q-40 -6 -70 -8t-64 -2h-47h-72q-55 0 -80 6q-25 7 -37 24q-5 6 -10 14l-8 18q-5 9 -10.5 16.5t-11.5 11.5zM466 330h48 q37 4 52 8.5t27 14.5t20 28t8 49q0 27 -11.5 51t-30 41.5t-43 27.5t-51.5 10q-4 0 -13 -2t-18.5 -6t-16.5 -9.5t-7 -12.5v-200h36z" />
<glyph unicode="s" horiz-adv-x="826" d="M520 581h260l14 -16q0 -3 0.5 -14t0.5 -15v-18q0 -14 -4 -30t-15 -44q-32 32 -61 50.5t-58 33.5q-29 16 -57 24q-24 9 -144 7q-17 -1 -42.5 -4t-49.5 -12t-41 -24.5t-17 -42.5q0 -12 9 -25t21 -25q13 -12 23.5 -17t26.5 -9l29 -4q12 -1 22 -1q39 0 87 -6q15 -2 34.5 -5.5 t55.5 -15.5l55 -10q20 -3 27 -5q14 -3 33 -6.5t37 -12.5q8 -4 14 -11.5t12 -16.5l11 -16q5 -9 13 -15v-11q0 -8 0.5 -18t0.5 -19v-10q0 -47 -16 -84.5t-44 -65t-67 -44.5t-84 -22q-4 -1 -8 -1h-6h-11q-2 1 -86 1h-239h-240v29v138l10 19q1 -2 4.5 -5.5t5.5 -4.5l30 -19 l25 -22l36 -36l36 -36q17 -17 23 -24q6 3 31 -2q22 -4 46 -3q5 1 16 1h20h57q32 2 54 3t34 1q24 0 39 13.5t15 36.5q0 16 -7.5 28t-19.5 20.5t-26.5 13t-28.5 6.5q-8 1 -29.5 2.5t-45.5 2.5q-24 2 -57.5 10t-73.5 20q-72 32 -98 51q-13 10 -22 18l-17 14l-21 18 q-10 9 -18.5 20.5t-13.5 26.5t-5 35q0 44 18.5 76t49 55t70 37.5t80.5 22.5t81 11t72 3h134z" />
<glyph unicode="t" horiz-adv-x="912" d="M636 512l-40 -32l1 -261q0 -57 7.5 -93t27.5 -60q10 -12 19 -20t19.5 -15t24.5 -14l31 -17l-548 2q20 22 41.5 29.5t38.5 17.5q18 11 29 28.5t11 52.5v350l-20 36q-38 -14 -72.5 -35t-65.5 -46q-30 -24 -56.5 -51.5t-71.5 -59.5l-2 26v190q0 10 1.5 17t5.5 19l18 4h139 h294h18h22h372l18 -4q4 -12 5.5 -19t1.5 -17v-190l-5 -18q-21 12 -37.5 25t-31.5 27l-28 27q-14 13 -29 25q-30 25 -65 45t-73 31z" />
<glyph unicode="u" horiz-adv-x="980" d="M888 380v-236q-11 -46 -29 -58q-9 -7 -18 -12l-17 -11q-18 -10 -37.5 -19.5t-46.5 -18.5q-29 -8 -52 -13t-45 -7.5t-44.5 -3.5t-49.5 -1h-30h-14q-8 0 -12 1q-23 2 -65 0h-13q-123 10 -173 33q-26 11 -46.5 24.5t-36.5 27.5q-33 30 -49 82v312l-80 85l-12 15h262h18h22 h154q-6 -10 -11.5 -15t-10.5 -7.5t-10 -3t-9 -2.5q-9 -4 -16 -9.5t-7 -12.5v-72v-64v-104l1 -145q0 -22 3 -37.5t12 -34.5q10 -18 25 -30t37 -12q24 0 38.5 6.5t24.5 18t18 26.5t19 33v348v67q0 7 -7 12.5t-17 9.5q-4 2 -8.5 2.5t-9.5 3t-10.5 7.5t-11.5 15h154h22h18h262 l-12 -15l-80 -85v-100z" />
<glyph unicode="v" d="M952 576q28 -4 -16 -32q-1 -2 -7 -5.5t-13 -6.5l-13 -7q-6 -3 -7 -4q-55 -49 -89 -112t-60 -131l-50 -137q-25 -69 -61 -130q-2 -2 -5.5 -6.5t-4.5 -4.5h-260l-5 9l-11 22l-13 26l-11 22q-13 26 -27 59l-31 69l-34 74q-18 38 -38 74q-42 76 -88 130.5t-100 92.5h592 l-8 -23l-7 -15.5t-5.5 -11t-5.5 -10.5q-4 -11 -7 -23t-3 -31q12 -54 20 -86t12 -44l8 -24l7 -25l10 -38q5 -19 11 -34t10 -22t12 -11q11 4 20 16l86 232q8 38 4 44q-3 14 -13 27l-9 15q-4 7 -9 14q-7 12 -89 50h32h5h5q7 -1 50 0h132z" />
<glyph unicode="w" horiz-adv-x="1142" d="M6 564q22 16 72 16l153 1h59h53h69q0 -15 -2 -27l-5 -22l-5 -20q-3 -10 -3 -22q0 -16 8.5 -39t19.5 -48l20 -47q10 -22 13 -36q16 -24 17 -30q2 -8 6.5 -14.5t16.5 -6.5t21 14.5t16 34t10.5 39t3.5 28.5q0 17 -9 45t-24 54q-14 27 -33 46.5t-43 49.5h132h228h52 q44 -5 34 -21q-10 -17 -19 -25.5t-9 -23.5v-110q67 -128 70 -150q1 0 2.5 -0.5t2.5 -0.5q6 0 23 57q8 29 18 61l22 69q4 24 5 40.5t-7 33.5t-21 29t-33 12q-32 25 -9 26l25 7l75 -3h31h24h14q9 0 14 -1q30 -1 32 -12q-17 -8 -31.5 -22t-27.5 -33q-13 -20 -30 -57t-37 -94 q-34 -128 -60.5 -211.5t-46.5 -131.5l-25 -19h-24h-156l-20 10q-2 5 -6 18t-9 27l-9 27q-4 13 -6 18q-4 9 -14 37l-23 57q-12 30 -23.5 53.5t-18.5 23.5q-16 0 -43 -40l-79 -231h-9h-180l-140 356l-57 143l-33 33q-28 16 -32 32z" />
<glyph unicode="x" horiz-adv-x="900" d="M602 380l-22 -24q-2 4 -20 24t-52 55l-50 55q-17 19 -18 20q2 1 14 15.5t28 24.5t19 18t-33 10h-460q-2 -17 8.5 -29.5t29.5 -16.5q16 -8 24 -14l25 -18q18 -14 165 -196l34 -46l-22 -33l-106 -116l-51 -47q-19 -17 -25 -21q-32 -8 -58 -25q-24 -16 14 -17h236h78 q14 10 16 18q-18 15 -39.5 19t-39.5 10t-30 22t-12 55l9 16q4 6 10 13l14 16l26 29l22 24q5 -8 71 -80q68 -71 69 -74q-2 -1 -14 -14t-24 -19q-11 -5 -19 -20q-7 -13 29 -14h460q2 15 -8.5 28t-29.5 17q-16 8 -24 14l-25 18q-18 14 -165 196l-14 21l-20 28l22 30l106 116 l51 47q19 17 25 21q32 8 58 25q28 17 -14 17h-238h-72q-18 -9 -20 -18q18 -15 39.5 -19t39.5 -10t30 -22t12 -55q-6 -11 -9.5 -16.5t-9.5 -11.5l-14 -17z" />
<glyph unicode="y" horiz-adv-x="880" d="M602 380l-22 -24q-2 4 -20 24t-52 55l-51 55q-16 19 -17 20q1 0 6 2l12 7l16 8l14 7q12 6 14 24q1 19 -34 20h-460q-2 -17 8.5 -29.5t29.5 -16.5q16 -8 24 -14l25 -18q18 -14 165 -196l10 -24v-120q0 -27 -22.5 -48.5t-50 -40t-51 -36t-24.5 -35.5h138h462q-45 53 -62 66 q-7 5 -13.5 9t-12.5 7q-11 7 -22.5 19.5t-19.5 32.5q1 28 0.5 63t-1.5 78q0 11 12.5 28t40.5 49l106 116l51 47q19 17 25 21q16 4 28.5 8t21.5 8q20 8 -8 26h-236h-76q-14 -9 -16 -18q18 -15 39.5 -19t39.5 -10t30 -22t12 -55q-6 -11 -9.5 -16.5t-9.5 -11.5l-14 -17z" />
<glyph unicode="z" horiz-adv-x="926" d="M452 546l-10 2h-28q-52 0 -114 -20l-95 -36q-34 -14 -41 -19l-17 -10l-16 -12l-34 -21q-16 -10 -33 -10q-13 0 -17.5 3t-6.5 8l-5 10q-2 6 -11 11q0 4 -0.5 17.5t-0.5 17.5q0 7 -0.5 22.5t1 30.5t5.5 27t14 13h551h22h18l278 -2l-28 -13l-82 -93l-202 -281 q-75 -103 -104 -135q-11 -13 2.5 -17.5t43.5 -2.5q23 2 64 15.5t104 36.5q124 47 160 92l10 10q21 1 30 -17.5t11 -42.5t0.5 -46.5t-0.5 -29.5v-11q0 -7 -0.5 -14t-0.5 -13v-6l-10 -10l-900 2q18 21 41 29q22 8 105 115l110 152l82 106l54 68q21 25 32 37q21 21 18 37z" />
<glyph unicode="|" horiz-adv-x="370" d="M318 653h-90h-22h-189v-103l-1 -622h302v725z" />
<glyph unicode="&#xaa;" horiz-adv-x="938" d="M10 12q2 0 3 -1.5t4.5 -4t10.5 -4t21 -1.5q7 -1 12 -1h9h10h130q43 1 50 0h5h5h32q-82 37 -90 50q-5 10 -13 21.5t-13 21.5q-5 9 -6.5 19.5t-1.5 31.5h48h28h104h24v-30q0 -19 -3 -31t-8 -23q-4 -11 -9.5 -21.5t-15.5 -38.5h592q-54 38 -100.5 92.5t-88.5 130.5 q-19 36 -37 74l-34 74l-30 69q-15 33 -28 59l-10 23l-14 26l-11 21l-5 9h-260q-1 0 -4.5 -4.5t-5.5 -6.5q-36 -61 -60 -130l-51 -137q-26 -68 -60 -131t-89 -112q-1 -1 -7 -4t-13 -7l-13 -8q-6 -3 -7 -4q-1 0 -1.5 -4.5t-0.5 -6.5t0.5 -6t1.5 -5zM362 180h-104l-58 2 q1 2 6 19l10 41q7 24 24 75l14 41q6 16 10 25t7 12t8 3q12 0 20.5 -9t14.5 -24t11 -34l10 -38q7 -25 15 -49t12 -64z" />
<glyph unicode="&#xad;" horiz-adv-x="552" d="M525 281v18q0 9 -2 20q-1 20 -11 29.5t-20 17.5q-12 8 -25 8q-13 -1 -20.5 2.5t-8.5 3.5h-325q-21 0 -44.5 -4.5t-36 -14t-14.5 -23.5t-2 -38v-44q0 -12 6 -24t17 -16.5t30 -15.5h369q39 0 63 23t24 58z" />
<glyph unicode="&#xb2;" horiz-adv-x="826" d="M520 0h260l14 16q0 3 0.5 14t0.5 15v18q0 14 -4 30t-15 44q-32 -32 -61 -50.5t-58 -33.5q-29 -17 -57 -24q-24 -9 -144 -7l-152 -1l2 84q0 12 9 25t21 25q13 12 23.5 17t26.5 9l28 3q13 2 23 2q39 0 87 6q15 2 34.5 5.5t55.5 15.5l54 9q21 4 28 6q14 3 33 6.5t37 12.5 q8 4 14 11.5l12 15.5l10 18q6 8 14 14v11q0 8 0.5 18t0.5 19v10q0 46 -16 84t-44 65.5t-67 44.5t-84 22q-4 1 -8 1h-6h-11q-2 -1 -86 -1h-239h-240v-29v-138l10 -19q1 2 4.5 5.5t5.5 4.5l30 19q7 6 24 23l37 35l36 36q17 17 23 24q6 -3 31 2q22 4 46 3q5 -1 16 -1h20h57 q32 -2 54 -3t34 -1q24 0 39 -13.5t15 -36.5q0 -17 -7.5 -28.5t-19.5 -20t-26.5 -13t-28.5 -6.5q-8 -1 -29.5 -2.5t-45.5 -2.5q-24 -2 -57.5 -10t-73.5 -20q-72 -32 -98 -51q-13 -10 -22 -18l-17 -14q-21 -17 -39.5 -38.5t-18.5 -61.5l1 -204l370 -1h134z" />
<glyph unicode="&#xb3;" d="M365 0h25h18h14q8 0 12 1l324 1q20 0 30 2t22 8q21 1 45.5 13t45.5 30.5t35 41t14 45.5q0 27 -12.5 47t-30 33.5t-35.5 22.5l-27 14l-16 6l-19 7l-28 8l-40 12l56 14q19 5 31.5 9.5t23.5 10.5l31 18q25 14 45.5 36t20.5 60q0 22 -14 45t-35 41.5t-45.5 30.5t-45.5 13 q-11 4 -24 5t-41 5l-428 -2q-116 -17 -162 -6q-41 10 -126 10q-10 0 -14.5 -12.5t-6 -28.5t-1 -32t0.5 -22q0 -4 0.5 -17.5t0.5 -17.5q9 -5 11 -10l6 -11q2 -5 6.5 -8t16.5 -3q17 0 33 10l34 21q8 6 16 11l17 11q7 5 41 19l95 36q23 8 39.5 12t31 5.5t29.5 1t35 -1.5h18 q11 0 22 0.5t26 0.5q24 -4 50 -10t44 -19q18 -12 29.5 -36t11.5 -51q0 -31 -8 -49t-20 -28t-27 -14.5t-52 -8.5h-48l-24 -2l-32 4q-26 10 -50.5 21t-47.5 23t-38 22l-26 16q-10 7 -16.5 10.5t-12.5 3.5v-240q10 5 34 16l66 30q42 19 84.5 28.5t94.5 -2.5q26 -5 43 -10l25 -6 q17 -5 27 -14q12 -9 20 -26.5t8 -47.5q0 -28 -12 -50.5t-30.5 -38t-41 -24t-43.5 -8.5h-24l-32 1h-90q-25 2 -71 24q-23 11 -45.5 24.5t-44.5 28.5l-40 19q-16 7 -24 12q-9 5 -25 16l-41 30l-43 40v-190q0 -10 0.5 -16t0.5 -22l24 -2h326z" />
<glyph unicode="&#xb9;" horiz-adv-x="558" d="M384 542l45 -44v-279q0 -57 7.5 -93t27.5 -60q10 -12 19 -20t19.5 -15t23.5 -14l32 -17l-548 2q20 22 41.5 29.5t38.5 17.5q18 11 29 28.5t11 52.5l-1 368l-79 67l-28 15h26h270h22z" />
<glyph unicode="&#xba;" horiz-adv-x="956" d="M10 284q-3 -58 14.5 -101.5t48.5 -74.5t72.5 -52t87 -33t90.5 -17t84 -5h13q42 2 65 0q6 -1 12 -1h14h30q28 0 50 1t43.5 4t45.5 7l60 10q19 12 38.5 21.5t38 20t35.5 23t32 30.5q31 37 40 52q10 15 14 29t12 32v12q0 8 0.5 17.5t0.5 18.5v11q0 54 -8 84t-24 51 t-38.5 42.5t-48.5 42.5q-25 21 -48.5 30.5t-47.5 17.5q-23 8 -47.5 14t-48.5 7h-22q-20 0 -46.5 0.5t-53.5 0.5h-43h-33q-23 0 -49.5 -0.5t-50.5 -0.5h-32q-48 -7 -99 -21.5t-96 -43.5q-23 -16 -42.5 -41.5t-33.5 -53.5q-13 -27 -20 -59t-9 -75zM499 545q35 0 58 -22.5 t23 -59.5v-348q-11 -18 -19 -33t-18 -26.5t-24.5 -18t-38.5 -6.5q-22 0 -37 12t-24.5 30.5t-14 40.5t-4.5 42v307q0 1 3.5 8t2.5 20q0 12 8 23q8 10 17.5 19.5t29.5 10.5q5 1 10 1h10h18z" />
<glyph unicode="&#x152;" horiz-adv-x="1874" d="M1386 292l-1 -73q0 -57 7.5 -93t27.5 -60q10 -12 19 -20t19.5 -15t41 -7t41.5 7t57 29q23 11 45.5 24.5t44.5 28.5q43 31 80.5 66.5t67.5 70.5l25 -20v-190q0 -10 -0.5 -16t-0.5 -22l-24 -2h-322l-548 2q20 22 41.5 29.5t38.5 17.5q18 11 29 28.5t11 52.5v350l-80 85 l-28 15h278h18h22h540l24 -2q0 -16 0.5 -22t0.5 -16v-190l-25 -20q-30 35 -67.5 70.5t-80.5 66.5q-22 15 -44.5 28.5t-45.5 24.5q-46 22 -96 40h-61q-4 0 -13 -2t-18.5 -6t-16.5 -9.5t-7 -12.5v-206q84 12 172 62q42 25 62 33.5t32 8.5v-240q-10 5 -34 16l-66 30 q-42 19 -83 33.5t-83 24.5zM10 284q-3 -58 14.5 -101.5t48.5 -74.5t72.5 -52t87 -33t90.5 -17t84 -5h13q42 2 65 0q6 -1 12 -1h14h30q28 0 50 1t43.5 4t45.5 7l60 10q19 12 38.5 21.5t38 20t35.5 23t32 30.5q31 37 40 52q10 15 14 29t12 32v12q0 8 0.5 17.5t0.5 18.5v11 q0 54 -8 84t-24 51t-38.5 42.5t-48.5 42.5q-25 21 -48.5 30.5t-47.5 17.5q-23 8 -47.5 14t-48.5 7h-22q-20 0 -46.5 0.5t-53.5 0.5h-43h-33q-23 0 -49.5 -0.5t-50.5 -0.5h-32q-48 -7 -99 -21.5t-96 -43.5q-23 -16 -42.5 -41.5t-33.5 -53.5q-13 -27 -20 -59t-9 -75zM499 545 q35 0 58 -22.5t23 -59.5v-348q-11 -18 -19 -33t-18 -26.5t-24.5 -18t-38.5 -6.5q-22 0 -37 12t-24.5 30.5t-14 40.5t-4.5 42v307q0 1 3.5 8t2.5 20q0 12 8 23q8 10 17.5 19.5t29.5 10.5q5 1 10 1h10h18z" />
<glyph unicode="&#x153;" horiz-adv-x="1882" d="M1498 36q-24 -4 -40.5 1.5t-37.5 28.5q-20 25 -28 60q-7 37 -6 166q42 -10 83 -24.5t83 -33.5q82 -38 106 -62v272q-8 -4 -33 -18l-67 -40q-87 -50 -172 -62v206q0 7 7 12.5t16.5 9.5t18.5 6t13 2h29q32 -6 61.5 -14t58.5 -18q122 -45 136 -55l16 -11q9 -5 17 -11l33 -21 q17 -10 34 -10q12 0 16.5 3t7 7.5t5 10.5t11.5 11q0 4 0.5 17.5t0.5 17.5q0 6 0.5 22t-1 32t-6 28.5t-14.5 12.5l-550 -2h-22h-18h-278l28 -15l80 -85v-350q0 -35 -11 -52.5t-29 -28.5q-17 -10 -38.5 -17.5t-41.5 -29.5l900 -2l10 10v6q0 6 0.5 13t0.5 14v11q-1 7 0.5 29.5 t-0.5 46.5t-11 42.5t-30 17.5l-10 -10q-38 -46 -160 -92q-62 -23 -103.5 -36.5t-64.5 -15.5zM10 284q-3 -58 14.5 -101.5t48.5 -74.5t72.5 -52t87 -33t90.5 -17t84 -5h13q42 2 65 0q6 -1 12 -1h14h30q28 0 50 1t43.5 4t45.5 7l60 10q19 12 38.5 21.5t38 20t35.5 23t32 30.5 q31 37 40 52q10 15 14 29t12 32v12q0 8 0.5 17.5t0.5 18.5v11q0 54 -8 84t-24 51t-38.5 42.5t-48.5 42.5q-25 21 -48.5 30.5t-47.5 17.5q-23 8 -47.5 14t-48.5 7h-22q-20 0 -46.5 0.5t-53.5 0.5h-43h-33q-23 0 -49.5 -0.5t-50.5 -0.5h-32q-48 -7 -99 -21.5t-96 -43.5 q-23 -16 -42.5 -41.5t-33.5 -53.5q-13 -27 -20 -59t-9 -75zM499 545q35 0 58 -22.5t23 -59.5v-348q-11 -18 -19 -33t-18 -26.5t-24.5 -18t-38.5 -6.5q-22 0 -37 12t-24.5 30.5t-14 40.5t-4.5 42v307q0 1 3.5 8t2.5 20q0 12 8 23q8 10 17.5 19.5t29.5 10.5q5 1 10 1h10h18z " />
<glyph unicode="&#x2013;" horiz-adv-x="500" d="M16 200v180h457v-180h-457z" />
<glyph unicode="&#x2014;" horiz-adv-x="1000" d="M16 200v180h957v-180h-957z" />
<glyph unicode="&#x2019;" horiz-adv-x="280" d="M9 462q0 22 6 44t20 39.5t36.5 28.5t56.5 11q26 0 49.5 -8t41.5 -21.5t28.5 -32t10.5 -39.5q0 -12 -2 -29.5t-8.5 -38.5t-18.5 -45.5t-33 -50.5q-40 -52 -76 -54q-34 -1 -14 32q21 33 26 82q-44 -12 -63.5 -6t-33.5 20q-13 14 -19.5 32t-6.5 36z" />
<glyph unicode="&#x201c;" horiz-adv-x="568" d="M289 462q0 22 6 44t20 39.5t36.5 28.5t56.5 11q26 0 49.5 -8t41.5 -21.5t28.5 -32t10.5 -39.5q0 -12 -2 -29.5t-8.5 -38.5t-18.5 -45.5t-33 -50.5q-40 -52 -76 -54q-34 -1 -14 32q21 33 26 82q-44 -12 -63.5 -6t-33.5 20q-13 14 -19.5 32t-6.5 36zM9 462q0 22 6 44 t20 39.5t36.5 28.5t56.5 11q26 0 49.5 -8t41.5 -21.5t28.5 -32t10.5 -39.5q0 -12 -2 -29.5t-8.5 -38.5t-18.5 -45.5t-33 -50.5q-40 -52 -76 -54q-34 -1 -14 32q21 33 26 82q-44 -12 -63.5 -6t-33.5 20q-13 14 -19.5 32t-6.5 36z" />
<glyph unicode="&#x201d;" horiz-adv-x="568" d="M289 462q0 22 6 44t20 39.5t36.5 28.5t56.5 11q26 0 49.5 -8t41.5 -21.5t28.5 -32t10.5 -39.5q0 -12 -2 -29.5t-8.5 -38.5t-18.5 -45.5t-33 -50.5q-40 -52 -76 -54q-34 -1 -14 32q21 33 26 82q-44 -12 -63.5 -6t-33.5 20q-13 14 -19.5 32t-6.5 36zM9 462q0 22 6 44 t20 39.5t36.5 28.5t56.5 11q26 0 49.5 -8t41.5 -21.5t28.5 -32t10.5 -39.5q0 -12 -2 -29.5t-8.5 -38.5t-18.5 -45.5t-33 -50.5q-40 -52 -76 -54q-34 -1 -14 32q21 33 26 82q-44 -12 -63.5 -6t-33.5 20q-13 14 -19.5 32t-6.5 36z" />
<glyph unicode="&#x2026;" horiz-adv-x="1100" d="M385 98q0 22 7.5 44t25 39.5t45 28.5t66.5 11q32 0 61 -8t50.5 -21.5t34 -32t12.5 -39.5q0 -24 -8.5 -50t-32.5 -44t-54 -22t-73 -4q-33 0 -58.5 8.5t-42 22t-25 31t-8.5 36.5zM757 98q0 22 7.5 44t25 39.5t45 28.5t66.5 11q32 0 61 -8t50.5 -21.5t34 -32t12.5 -39.5 q0 -24 -8.5 -50t-32.5 -44t-54 -22t-73 -4q-33 0 -58.5 8.5t-42 22t-25 31t-8.5 36.5zM9 98q0 22 7.5 44t25 39.5t45 28.5t66.5 11q32 0 61 -8t50.5 -21.5t34 -32t12.5 -39.5q0 -24 -8.5 -50t-32.5 -44t-54 -22t-73 -4q-33 0 -58.5 8.5t-42 22t-25 31t-8.5 36.5z" />
<glyph unicode="&#x2122;" horiz-adv-x="2218" d="M1812 400q-16 31 -50 -18l-118 -314l-16 -36q-12 -24 -22.5 -27t-11.5 -3h-260l-5 9l-11 21l-14 26l-10 23q-13 26 -28 59l-30 69l-34 74q-18 38 -38 74q-65 91 -84 51q-2 -83 -3 -104q-1 -5 -1 -12v-15v-36q4 -44 20 -83t40 -70.5t55 -53.5t65 -32h-338q6 14 10.5 18 t7.5 8q4 4 16 17l24 28l24 29q12 14 16 20q1 10 6 27l4 12q1 5 2 12.5t1.5 20t0.5 34.5v164q0 151 -82 188h620l-8 -23l-7 -15.5t-5.5 -11t-5.5 -10.5q-4 -11 -7 -23t-3 -31q12 -54 20 -86t12 -44l8 -24l7 -25l10 -38q5 -19 11 -34t12 -22t14 9l144 378h444l-25 -13l-80 -85 v-350q0 -35 11 -52.5t29 -28.5t38 -18q22 -8 30 -33h-515l22 22q6 6 14 12t17.5 14t19.5 20q20 24 27.5 60t7.5 93zM636 512q39 -11 73.5 -31.5t65 -45.5t56.5 -53l49 -52l25 20v190q0 10 -1.5 17t-5.5 19l-18 4h-372h-22h-18h-294h-139l-18 -4q-4 -12 -5.5 -19t-1.5 -17 v-190l25 -20q22 26 48.5 53t57 52t65 46t72.5 35l20 -36v-350q0 -35 -11 -52.5t-29 -28.5q-17 -10 -38.5 -17.5t-41.5 -29.5l548 -2l-32 17q-13 7 -23.5 14t-19.5 15t-19 20q-20 24 -27.5 60t-7.5 93l-1 261z" />
<glyph unicode="&#xe000;" horiz-adv-x="580" d="M0 580h580v-580h-580v580z" />
<glyph unicode="&#xfb01;" horiz-adv-x="1480" d="M1463 580l-56 -24q-7 -6 -14 -9t-13.5 -7.5t-13.5 -13.5t-15 -28v-279q0 -57 7.5 -93t27.5 -60q10 -12 19 -20t19.5 -15t23.5 -14l32 -17l-548 2q20 22 41.5 29.5t38.5 17.5q18 11 29 28.5t11 52.5l-1 368l-79 67l-28 15h26h270h22h201zM430 292q42 -10 83 -24.5 t83 -33.5q82 -38 106 -62v272q-8 -4 -33 -18l-67 -40q-87 -50 -172 -62v206q0 7 7 12.5t16.5 9.5t18.5 6t13 2h29q32 -6 61.5 -14t58.5 -18q122 -45 136 -55l16 -11q9 -5 17 -11l33 -21q17 -10 34 -10q12 0 16.5 3t7 7.5t5 10.5t11.5 11q0 4 0.5 17.5t0.5 17.5q0 6 0.5 22 t-1 32t-6 28.5t-14.5 12.5l-550 -2h-22h-18h-278l28 -15l80 -85v-350q0 -35 -11 -52.5t-29 -28.5q-17 -10 -38.5 -17.5t-41.5 -29.5l548 -2l-32 17q-13 7 -23.5 14t-19.5 15t-19 20q-20 25 -28 60q-7 37 -6 166z" />
<glyph unicode="&#xfb02;" horiz-adv-x="1836" d="M1442 580l-35 -20q-4 0 -13 -2t-18.5 -6t-16.5 -9.5t-7 -12.5l-1 -311q0 -57 7.5 -93t27.5 -60q10 -12 16 -17t22 -9t68 -4q26 2 72 24q23 11 45.5 24.5t44.5 28.5q43 31 80.5 66.5t67.5 70.5l25 -20v-190q0 -10 -0.5 -16t-0.5 -22l-24 -2l-871 1q21 23 42.5 30.5 t38.5 17.5q18 11 29 28.5t11 52.5v350l-80 85l-28 15h296h22h180zM430 292q42 -10 83 -24.5t83 -33.5q82 -38 106 -62v272q-8 -4 -33 -18l-67 -40q-87 -50 -172 -62v206q0 7 7 12.5t16.5 9.5t18.5 6t13 2h29q32 -6 61.5 -14t58.5 -18q122 -45 136 -55l16 -11q9 -5 17 -11 l33 -21q17 -10 34 -10q12 0 16.5 3t7 7.5t5 10.5t11.5 11q0 4 0.5 17.5t0.5 17.5q0 6 0.5 22t-1 32t-6 28.5t-14.5 12.5l-550 -2h-22h-18h-278l28 -15l80 -85v-350q0 -35 -11 -52.5t-29 -28.5q-17 -10 -38.5 -17.5t-41.5 -29.5l548 -2l-32 17q-13 7 -23.5 14t-19.5 15 t-19 20q-20 25 -28 60q-7 37 -6 166z" />
<glyph unicode="&#xfb03;" horiz-adv-x="2402" d="M2385 580l-56 -24q-7 -6 -14 -9t-13.5 -7.5t-13.5 -13.5t-15 -28v-279q0 -57 7.5 -93t27.5 -60q10 -12 19 -20t19.5 -15t23.5 -14l32 -17l-548 2q20 22 41.5 29.5t38.5 17.5q18 11 29 28.5t11 52.5l-1 368l-79 67l-28 15h26h270h22h201zM1352 292q42 -10 83 -24.5 t83 -33.5q82 -38 106 -62v272q-8 -4 -33 -18l-67 -40q-87 -50 -172 -62v206q0 7 7 12.5t16.5 9.5t18.5 6t13 2h29q32 -6 61.5 -14t58.5 -18q122 -45 136 -55l16 -11q9 -5 17 -11l33 -21q17 -10 34 -10q12 0 16.5 3t7 7.5t5 10.5t11.5 11q0 4 0.5 17.5t0.5 17.5q0 6 0.5 22 t-1 32t-6 28.5t-14.5 12.5l-550 -2h-22h-18h-278l28 -15l80 -85v-350q0 -35 -11 -52.5t-29 -28.5q-17 -10 -38.5 -17.5t-41.5 -29.5l548 -2l-32 17q-13 7 -23.5 14t-19.5 15t-19 20q-20 25 -28 60q-7 37 -6 166zM430 292q42 -10 83 -24.5t83 -33.5q82 -38 106 -62v272 q-8 -4 -33 -18l-67 -40q-87 -50 -172 -62v206q0 7 7 12.5t16.5 9.5t18.5 6t13 2h29q32 -6 61.5 -14t58.5 -18q122 -45 136 -55l16 -11q9 -5 17 -11l33 -21q17 -10 34 -10q12 0 16.5 3t7 7.5t5 10.5t11.5 11q0 4 0.5 17.5t0.5 17.5q0 6 0.5 22t-1 32t-6 28.5t-14.5 12.5 l-550 -2h-22h-18h-278l28 -15l80 -85v-350q0 -35 -11 -52.5t-29 -28.5q-17 -10 -38.5 -17.5t-41.5 -29.5l548 -2l-32 17q-13 7 -23.5 14t-19.5 15t-19 20q-20 25 -28 60q-7 37 -6 166z" />
<glyph unicode="&#xfb04;" horiz-adv-x="2758" d="M2364 580l-35 -20q-4 0 -13 -2t-18.5 -6t-16.5 -9.5t-7 -12.5l-1 -311q0 -57 7.5 -93t27.5 -60q10 -12 16 -17t22 -9t68 -4q26 2 72 24q23 11 45.5 24.5t44.5 28.5q43 31 80.5 66.5t67.5 70.5l25 -20v-190q0 -10 -0.5 -16t-0.5 -22l-24 -2l-871 1q21 23 42.5 30.5 t38.5 17.5q18 11 29 28.5t11 52.5v350l-80 85l-28 15h296h22h180zM1352 292q42 -10 83 -24.5t83 -33.5q82 -38 106 -62v272q-8 -4 -33 -18l-67 -40q-87 -50 -172 -62v206q0 7 7 12.5t16.5 9.5t18.5 6t13 2h29q32 -6 61.5 -14t58.5 -18q122 -45 136 -55l16 -11q9 -5 17 -11 l33 -21q17 -10 34 -10q12 0 16.5 3t7 7.5t5 10.5t11.5 11q0 4 0.5 17.5t0.5 17.5q0 6 0.5 22t-1 32t-6 28.5t-14.5 12.5l-550 -2h-22h-18h-278l28 -15l80 -85v-350q0 -35 -11 -52.5t-29 -28.5q-17 -10 -38.5 -17.5t-41.5 -29.5l548 -2l-32 17q-13 7 -23.5 14t-19.5 15 t-19 20q-20 25 -28 60q-7 37 -6 166zM430 292q42 -10 83 -24.5t83 -33.5q82 -38 106 -62v272q-8 -4 -33 -18l-67 -40q-87 -50 -172 -62v206q0 7 7 12.5t16.5 9.5t18.5 6t13 2h29q32 -6 61.5 -14t58.5 -18q122 -45 136 -55l16 -11q9 -5 17 -11l33 -21q17 -10 34 -10 q12 0 16.5 3t7 7.5t5 10.5t11.5 11q0 4 0.5 17.5t0.5 17.5q0 6 0.5 22t-1 32t-6 28.5t-14.5 12.5l-550 -2h-22h-18h-278l28 -15l80 -85v-350q0 -35 -11 -52.5t-29 -28.5q-17 -10 -38.5 -17.5t-41.5 -29.5l548 -2l-32 17q-13 7 -23.5 14t-19.5 15t-19 20q-20 25 -28 60 q-7 37 -6 166z" />
</font>
</defs>
</svg>
